<?xml version="1.0" standalone="no"?>
<!DOCTYPE svg PUBLIC "-//W3C//DTD SVG 1.1//EN" "http://www.w3.org/Graphics/SVG/1.1/DTD/svg11.dtd" >
<!--
2013-9-30: Created.
-->
<svg>
<metadata>
Created by iconfont
</metadata>
<defs>

<font id="iconfont" horiz-adv-x="1024" >
  <font-face
    font-family="iconfont"
    font-weight="500"
    font-stretch="normal"
    units-per-em="1024"
    ascent="896"
    descent="-128"
  />
    <missing-glyph />
    
    <glyph glyph-name="x" unicode="x" horiz-adv-x="1001"
d="M281 543q-27 -1 -53 -1h-83q-18 0 -36.5 -6t-32.5 -18.5t-23 -32t-9 -45.5v-76h912v41q0 16 -0.5 30t-0.5 18q0 13 -5 29t-17 29.5t-31.5 22.5t-49.5 9h-133v-97h-438v97zM955 310v-52q0 -23 0.5 -52t0.5 -58t-10.5 -47.5t-26 -30t-33 -16t-31.5 -4.5q-14 -1 -29.5 -0.5
t-29.5 0.5h-32l-45 128h-439l-44 -128h-29h-34q-20 0 -45 1q-25 0 -41 9.5t-25.5 23t-13.5 29.5t-4 30v167h911zM163 247q-12 0 -21 -8.5t-9 -21.5t9 -21.5t21 -8.5q13 0 22 8.5t9 21.5t-9 21.5t-22 8.5zM316 123q-8 -26 -14 -48q-5 -19 -10.5 -37t-7.5 -25t-3 -15t1 -14.5
t9.5 -10.5t21.5 -4h37h67h81h80h64h36q23 0 34 12t2 38q-5 13 -9.5 30.5t-9.5 34.5q-5 19 -11 39h-368zM336 498v228q0 11 2.5 23t10 21.5t20.5 15.5t34 6h188q31 0 51.5 -14.5t20.5 -52.5v-227h-327z" />
    

    
    <glyph glyph-name="icon60wechatempty2x" unicode="&#59026;" d="M911.36-78.88c-3.072 0-6.144 1.024-9.216 2.048l-174.08 87.04c-140.288 10.24-248.832 114.688-248.832 240.64 0 133.12 121.856 241.664 270.336 241.664s270.336-108.544 270.336-241.664c0-61.44-25.6-118.784-71.68-163.84L931.84-60.448c-1.024-7.168-5.12-12.288-10.24-15.36C917.504-77.856 914.432-78.88 911.36-78.88zM749.568 451.552c-126.976 0-229.376-90.112-229.376-200.704 0-105.472 94.208-192.512 215.04-199.68 3.072 0 5.12-1.024 8.192-2.048l151.552-75.776 14.336 125.952c1.024 5.12 3.072 9.216 6.144 13.312 41.984 37.888 64.512 87.04 64.512 139.264C978.944 361.44 875.52 451.552 749.568 451.552zM112.64-68.64c-4.096 0-8.192 1.024-12.288 4.096C95.232-60.448 92.16-53.28 92.16-46.112l20.48 162.816C43.008 179.168 4.096 261.088 4.096 349.152 4.096 531.424 172.032 678.88 377.856 678.88c116.736 0 224.256-47.104 295.936-128 5.12-6.144 6.144-13.312 4.096-20.48-3.072-7.168-9.216-12.288-16.384-13.312-133.12-18.432-233.472-129.024-233.472-256 0-70.656 29.696-137.216 83.968-186.368 5.12-5.12 8.192-12.288 6.144-19.456-2.048-7.168-7.168-13.312-13.312-15.36-64.512-20.48-131.072-25.6-197.632-13.312l-184.32-92.16C118.784-67.616 115.712-68.64 112.64-68.64zM377.856 637.92C194.56 637.92 45.056 507.872 45.056 349.152c0-78.848 36.864-152.576 102.4-207.872 5.12-4.096 8.192-11.264 7.168-18.432l-17.408-136.192 156.672 77.824c4.096 2.048 8.192 3.072 13.312 2.048 51.2-9.216 102.4-9.216 151.552 2.048-47.104 53.248-72.704 120.832-72.704 191.488 0 135.168 96.256 252.928 230.4 288.768C553.984 606.176 468.992 637.92 377.856 637.92z"  horiz-adv-x="1024" />

    
    <glyph glyph-name="arrowleftc" unicode="&#59075;" d="M378.6 639.2 178 429.2c-12-11.6-18-27.4-18-44.8 0-17.4 6-33 18-44.8l200.6-210.8c23.8-25 62.6-25 86.4 0 23.8 25 23.8 65.4 0 90.4L368.8 320l434 0c33.8 0 61.2 28.6 61.2 64 0 35.4-27.4 64-61.2 64l-434 0 96.4 100.8c23.8 25 23.8 65.4 0 90.4C441.2 664.2 402.6 664.2 378.6 639.2z"  horiz-adv-x="1024" />

    
    <glyph glyph-name="arrowbottomright" unicode="&#58946;" d="M213.333333 622.506667 273.493333 682.666667 725.333333 230.826667 725.333333 512 810.666667 512 810.666667 85.333333 384 85.333333 384 170.666667 665.173333 170.666667 213.333333 622.506667Z"  horiz-adv-x="1024" />

    
    <glyph glyph-name="icontychatbubble2" unicode="&#58935;" d="M425.731706 427.37181c0-17.847483-14.46648-32.313963-32.31601-32.313963-17.848507 0-32.314986 14.46648-32.314986 32.313963 0 17.850553 14.46648 32.31601 32.314986 32.31601C411.265226 459.68782 425.731706 445.222363 425.731706 427.37181zM569.026296 427.37181c0-17.847483-14.46648-32.313963-32.307823-32.313963-17.848507 0-32.314986 14.46648-32.314986 32.313963 0 17.850553 14.46648 32.31601 32.314986 32.31601C554.56084 459.68782 569.026296 445.222363 569.026296 427.37181zM712.336236 427.37181c0-17.847483-14.465456-32.313963-32.314986-32.313963s-32.314986 14.46648-32.314986 32.313963c0 17.850553 14.465456 32.31601 32.314986 32.31601S712.336236 445.222363 712.336236 427.37181zM394.062426-16.00937c-11.633968 0-22.155603 7.987928-24.898063 19.806091-3.193739 13.762445 5.374404 27.509541 19.137873 30.703279 80.485079 18.675338 110.700241 97.228415 110.995977 98.019431 3.737114 9.998725 13.288654 16.624632 23.962761 16.624632 175.569668 0 318.405817 124.675534 318.405817 277.921777 0 153.250336-142.836149 277.92894-318.405817 277.92894S204.855156 580.317201 204.855156 427.066865c0-47.368844 13.909801-94.137007 40.226167-135.248334 25.798573-40.301891 63.048965-74.707492 107.724467-99.496062 12.354376-6.855128 16.811898-22.427802 9.956769-34.782178s-22.428825-16.810874-34.782178-9.956769c-52.066843 28.892027-95.634104 69.228711-125.990482 116.650767-31.598672 49.361221-48.301076 105.668645-48.300053 162.833599 0 44.832068 9.940396 88.301092 29.546943 129.198547 18.816554 39.250956 45.686529 74.443479 79.862909 104.59929 69.648266 61.452607 162.042583 95.29539 260.162298 95.29539 98.120738 0 190.514031-33.843806 260.162298-95.29539 34.17638-30.15581 61.046355-65.347311 79.862909-104.59929 19.605523-40.897456 29.54592-84.36648 29.54592-129.198547s-9.940396-88.301092-29.54592-129.197524c-18.816554-39.250956-45.686529-74.442456-79.863932-104.597243-65.726957-57.991786-151.71026-91.39557-243.650229-94.972025-15.72617-30.522154-57.681724-94.561679-139.9054-113.641223C397.92336-15.792429 395.977032-16.00937 394.062426-16.00937z"  horiz-adv-x="1024" />

    
    <glyph glyph-name="icontychatbubble" unicode="&#58944;" d="M394.062426-16.00937c-11.633968 0-22.155603 7.987928-24.898063 19.806091-3.193739 13.762445 5.374404 27.509541 19.137873 30.703279 33.029254 7.66354 61.581544 26.15366 84.862783 54.955636 18.117636 22.412452 26.088168 42.951231 26.165939 43.155892 3.737114 9.997702 13.254885 16.532535 23.928992 16.532535 175.569668 0 318.405817 124.675534 318.405817 277.921777 0 153.250336-142.836149 277.92894-318.405817 277.92894-175.569668 0-318.405817-124.677581-318.405817-277.92894 0-47.368844 13.909801-94.137007 40.226167-135.248334 25.798573-40.301891 63.048965-74.707492 107.724467-99.496062 12.354376-6.855128 16.811898-22.427802 9.956769-34.782178s-22.428825-16.810874-34.782178-9.956769c-52.066843 28.892027-95.634104 69.228711-125.990482 116.650767-31.598672 49.361221-48.301076 105.668645-48.300053 162.833599 0 44.832068 9.940396 88.301092 29.546943 129.198547 18.816554 39.250956 45.686529 74.443479 79.862909 104.59929 69.648266 61.452607 162.042583 95.29539 260.161275 95.29539 98.120738 0 190.515055-33.843806 260.162298-95.29539 34.17638-30.15581 61.046355-65.347311 79.862909-104.59929 19.605523-40.897456 29.54592-84.36648 29.54592-129.198547s-9.940396-88.301092-29.54592-129.197524c-18.816554-39.250956-45.686529-74.442456-79.862909-104.597243-65.72798-57.991786-151.711284-91.39557-243.651252-94.972025-15.72617-30.522154-57.6807-94.561679-139.904377-113.641223C397.92336-15.792429 395.977032-16.00937 394.062426-16.00937zM658.533866 455.293743 387.98808 455.293743c-14.128789 0-25.582655 11.453866-25.582655 25.582655s11.453866 25.582655 25.582655 25.582655l270.545786 0c14.128789 0 25.582655-11.453866 25.582655-25.582655S672.662655 455.293743 658.533866 455.293743zM594.8965 335.432865 387.98808 335.432865c-14.128789 0-25.582655 11.453866-25.582655 25.582655 0 14.128789 11.453866 25.582655 25.582655 25.582655l206.90842 0c14.129812 0 25.582655-11.453866 25.582655-25.582655C620.479155 346.886731 609.025289 335.432865 594.8965 335.432865z"  horiz-adv-x="1024" />

    
    <glyph glyph-name="facebookfacebook51" unicode="&#58884;" d="M1024 384c0 282.763636-229.236364 512-512 512C229.236364 896 0 666.763636 0 384s229.236364-512 512-512C794.763636-128 1024 101.236364 1024 384zM46.545455 384C46.545455 641.070545 254.929455 849.454545 512 849.454545c257.070545 0 465.454545-208.384 465.454545-465.454545 0-257.070545-208.384-465.454545-465.454545-465.454545C254.929455-81.454545 46.545455 126.929455 46.545455 384zM531.642182 88.482909 531.642182 384l97.512727 0 15.406545 97.931636-112.919273 0L531.642182 531.037091c0 25.553455 8.378182 49.943273 45.056 49.943273l73.309091 0 0 97.745455-104.075636 0c-87.505455 0-111.383273-57.623273-111.383273-137.495273l0-59.252364-60.043636 0L374.504727 384l60.043636 0 0-295.517091L531.642182 88.482909z"  horiz-adv-x="1024" />

    
    <glyph glyph-name="314-arrow-up-left2" unicode="&#59037;" d="M877.248 109.248L346.496 640H576a64 64 0 0 1 0 128H192a64.128 64.128 0 0 1-64-64h-0.064v-384a64 64 0 0 1 128 0V549.504l530.752-530.752a63.808 63.808 0 0 1 90.496 0 63.936 63.936 0 0 1 0 90.496z"  horiz-adv-x="1024" />

    
    <glyph glyph-name="tuichu" unicode="&#58887;" d="M910.272 593.152c-35.081 62.77-82.451 114.687-139.225 153.977 86.668-78.036 77.117-73.152 66.425-73.152-18.977 0-34.36-15.384-34.36-34.36 0-8.285 2.932-15.885 7.816-21.819 53.517-64.878 86.009-148.929 86.033-240.57-0.291-209.086-169.805-378.6-378.981-378.891-209.232 0.255-378.753 169.798-378.971 378.987-0 0.040-0 0.062-0 0.085 0 94.506 34.619 180.927 91.867 247.272 4.721 5.478 7.846 13.298 7.846 21.848 0 18.964-15.373 34.337-34.337 34.337-10.414 0-19.745-4.636-26.042-11.956-67.162-77.908-108.049-180.041-108.070-291.723 0.291-247.036 200.551-447.295 447.652-447.586 247.157 0.291 447.417 200.551 447.708 447.652 0 0.105 0 0.197 0 0.288 0 79.097-20.519 153.402-56.524 217.881zM563.84 379.2c0-25.308-20.516-45.824-45.824-45.824s-45.824 20.516-45.824 45.824c0 0 0 0 0 0l-0 406.976c1.323 24.279 21.333 43.465 45.824 43.465 24.491 0 44.501-19.186 45.819-43.348l0.005-407.093z"  horiz-adv-x="1024" />

    
    <glyph glyph-name="wendang" unicode="&#58912;" d="M579.84 625.984h276.416c19.087 0 34.56 15.473 34.56 34.56s-15.473 34.56-34.56 34.56h-276.416c-19.087 0-34.56-15.473-34.56-34.56s15.473-34.56 34.56-34.56zM856.256 588.864h-357.696c-20.156 62.82-33.326 135.42-36.618 210.585 2.186-74.585-6.646-37.785-41.974-37.785h-254.912c-55.744 0-101.056-53.12-101.056-118.464v-518.336c0-65.344 45.312-118.464 101.056-118.464h691.2c55.744 0 101.12 53.12 101.12 118.528v345.6c0 65.216-45.376 118.336-101.12 118.336zM893.376 124.864c0-29.504-17.024-54.528-37.12-54.528h-691.2c-20.096 0.064-37.056 25.024-37.056 54.528v518.336c0 29.504 16.96 54.464 37.056 54.464h238.272c5.12-15.040 11.584-41.792 16.192-60.992 17.92-74.432 26.944-111.808 62.656-111.808h374.016c20.096 0 37.12-24.896 37.12-54.4v-345.6z"  horiz-adv-x="1024" />

    
    <glyph glyph-name="shipingkaiqi-xue" unicode="&#58920;" d="M513.6 566.976c-95.512-0.073-172.919-77.481-172.992-172.985-0-95.367 77.568-172.999 172.992-172.999s173.056 77.632 173.056 172.992c-0.109 95.519-77.532 172.919-173.049 172.992zM513.6 284.992c-60.165 0.073-108.919 48.827-108.992 108.985-0 60.103 48.896 108.999 108.992 108.999s109.056-48.896 109.056-108.992c0-60.096-48.96-108.992-109.056-108.992zM513.792 774.784c-194.816 0-370.304-152.896-453.376-376.448l7.616-28.864c83.072-222.848 252.864-356.288 445.76-356.288 193.216 0 367.36 143.232 450.24 366.656l2.816 18.496c-83.328 222.976-258.688 376.448-453.056 376.448zM513.792 70.528c-167.936 0-320.704 127.168-395.584 326.208 75.968 195.52 227.776 320.896 395.584 320.896 167.68 0 319.616-125.376 395.52-320.896-74.944-199.104-227.584-326.208-395.52-326.208z"  horiz-adv-x="1024" />

    
    <glyph glyph-name="shipingjinzhi-copy" unicode="&#58922;" d="M801.856 638.976l62.592 62.592c5.558 5.749 8.983 13.59 8.983 22.231 0 17.673-14.327 32-32 32-8.641 0-16.482-3.425-22.24-8.991l-65.911-65.911c-73.728 55.872-157.888 88.96-246.464 88.96-194.816 0-370.304-152.896-453.376-376.448l7.616-28.864c34.944-93.696 85.824-170.368 146.688-229.184l-58.88-58.88c-5.558-5.749-8.983-13.59-8.983-22.231 0-17.673 14.327-32 32-32 8.641 0 16.482 3.425 22.24 8.991l62.327 62.391c74.048-54.72 159.424-85.376 250.432-85.376 193.216 0 367.296 143.232 450.176 366.656l2.816 18.496c-36.736 98.048-91.904 181.504-158.016 245.568zM111.232 391.68c75.968 195.52 227.776 320.896 395.584 320.896 74.304 0 145.024-25.792 207.872-70.272l-110.592-110.592c-27.193 18.947-60.926 30.272-97.304 30.272-0.059 0-0.118-0-0.177-0-95.502-0.073-172.91-77.481-172.983-172.985-0-36.167 11.2-69.703 30.272-97.479l-114.176-114.112c-57.408 54.912-105.728 127.168-138.496 214.272zM615.616 388.992c0-60.096-48.896-108.992-108.992-108.992-18.368 0-35.456 4.992-50.688 13.056l146.624 146.624c8.064-15.232 13.056-32.32 13.056-50.688zM397.632 388.992c0 60.096 48.896 108.992 108.992 108.992 18.368 0 35.456-4.992 50.688-13.12l-146.624-146.56c-8.182 14.798-13.015 32.436-13.058 51.199zM506.816 65.472c-74.112 0-144.832 25.984-207.616 70.784l109.952 109.952c27.776-19.008 61.312-30.272 97.472-30.272 95.482 0.146 172.847 77.51 172.992 172.978 0 36.174-11.264 69.71-30.272 97.486l115.008 114.944c56.896-53.952 104.896-124.672 137.92-209.792-74.88-198.912-227.52-326.080-395.456-326.080z"  horiz-adv-x="1024" />

    
    <glyph glyph-name="bianji" unicode="&#59022;" d="M465.654 43.692l429.529 509.401c27.574 32.622 23.301 81.943-9.321 109.388l-158.193 133.597c-32.622 27.574-81.943 23.301-109.388-9.321l-429.658-509.401-24.854-271.595c-0.907-9.968 3.107-19.807 10.745-26.279s17.994-8.803 27.703-6.213l263.439 70.422zM587.213 653.68l182.141-153.533-311.077-368.944-182.141 153.662 311.077 368.814zM687.54 748.568l158.322-133.467c6.473-5.438 7.249-15.405 1.812-21.878l-38.577-45.826-182.012 153.533 38.577 45.826c5.438 6.473 15.534 7.249 21.878 1.812zM229.014 44.21l16.959 184.731 162.335-136.833-179.293-47.899z"  horiz-adv-x="1024" />

    
    <glyph glyph-name="cuowu" unicode="&#59020;" d="M887.982 542.379c-20.511 48.423-49.759 91.872-87.139 129.251s-80.828 66.628-129.251 87.139c-50.123 21.238-103.402 31.918-158.257 31.918s-108.134-10.801-158.257-31.918c-48.423-20.511-91.872-49.759-129.251-87.139-37.379-37.379-66.628-80.828-87.139-129.251-21.238-50.123-31.918-103.402-31.918-158.257s10.801-108.134 31.918-158.257c20.511-48.423 49.759-91.872 87.139-129.251 37.379-37.379 80.828-66.628 129.251-87.139 50.123-21.238 103.402-31.918 158.257-31.918s108.134 10.801 158.257 31.918c48.423 20.511 91.872 49.759 129.251 87.139 37.379 37.379 66.628 80.828 87.139 129.251 21.238 50.123 31.918 103.402 31.918 158.257s-10.681 108.134-31.918 158.257zM683.364 250.501c11.286-11.286 11.286-29.855 0-41.142s-29.855-11.286-41.142 0l-132.528 132.406-132.406-132.528c-11.286-11.286-29.855-11.286-41.142 0s-11.286 29.855 0 41.142l132.406 132.406-132.528 132.528c-11.286 11.286-11.286 29.855 0 41.142 11.286 11.286 29.855 11.286 41.142 0l132.406-132.406 132.406 132.406c11.286 11.286 29.855 11.286 41.142 0s11.286-29.855 0-41.142l-132.164-132.406 132.406-132.406z"  horiz-adv-x="1024" />

    
    <glyph glyph-name="fabu" unicode="&#59023;" d="M945.93 765.241c-7.638 15.276-26.279 21.619-41.684 13.981l-811.934-403.249c-15.276-7.638-21.619-26.279-13.981-41.684 1.683-3.365 3.884-6.343 6.473-8.803 3.365-3.237 7.378-5.696 12.169-7.249l273.148-85.828 41.943 52.041-222.919 70.035 611.539 303.957-327.131-395.999c-0.778-0.907-1.423-1.812-2.071-2.848l-37.801-46.991v-194.957c0-17.218 13.852-31.069 31.069-31.069s31.069 13.852 31.069 31.069v175.54l297.097-93.206c3.495-1.036 6.991-1.553 10.485-1.423 15.017-0.388 28.609 10.227 31.457 25.502l113.79 621.507c0.388 2.071 0.517 4.272 0.517 6.343-0.13 4.402-1.036 9.062-3.237 13.333zM779.969 169.107l-240.396 75.472 326.741 395.611-86.346-471.082z"  horiz-adv-x="1024" />

    
    <glyph glyph-name="erweima" unicode="&#59024;" d="M240.071 654.905h59.278v-59.278h-59.278v59.278zM405.959 761.515h-272.611v-272.611h106.723v-47.445h59.278v47.445h106.723v59.278h47.445v47.445h-47.445l-0.114 165.888zM346.795 548.181h-154.169v154.055h154.055v-154.055h0.114zM240.071 168.846h59.278v-59.278h-59.278v59.278zM726.016 654.905h59.278v-59.278h-59.278v59.278zM512.683 386.958v-63.943h59.278v59.165h47.445v59.278h-47.445v47.445h-59.278v-101.945zM512.683 170.211v-60.643h59.278v106.723h47.445v59.278h-106.723v-105.358zM571.961 109.568h47.445v-47.445h-47.445v47.445zM453.405 62.123v-59.165h118.557v59.165h-118.557zM678.685 216.291h-59.278v-106.723h106.61v59.278h-47.331v47.445zM726.016 2.958h166.002v59.165h-106.723v47.445h-59.278v-106.61zM892.018 382.179v59.278h-106.723v-59.278h106.723zM832.739 168.846h59.278v-59.278h-59.278v59.278zM453.405 548.181h59.278v-59.278h-59.278v59.278zM726.016 441.458v47.445h166.002v272.611h-272.611v-59.278h-106.723v-47.445h106.723v-59.165h-47.445v-47.445h47.445v-59.278h59.278v-47.445h47.331zM678.685 702.237h154.055v-154.055h-154.055v154.055zM678.685 323.015h47.331v-47.445h-47.331v47.445zM785.294 216.291h-59.278v-47.445h106.723v106.723h59.278v47.445h-106.723v-106.723zM453.405 654.905h59.278v-59.278h-59.278v59.278zM299.349 382.179h47.445v-59.165h-47.445v59.165zM453.405 441.458h-106.61v-59.278h59.165v-59.165h47.445v118.443zM405.959 109.568v106.723h47.445v59.278h-213.333v106.61h-106.723v-59.278h59.278v-47.445h-59.278v-272.611h272.611v59.278h47.445v47.445h-47.445zM346.795 62.123h-154.169v154.169h154.055v-154.169h0.114zM453.405 323.015h59.278v-47.445h-59.278v47.445zM619.406 382.179h59.278v-59.165h-59.278v59.165zM726.016 382.179h59.278v-59.165h-59.278v59.165z"  horiz-adv-x="1024" />

    
    <glyph glyph-name="huiyuan" unicode="&#59027;" d="M877.909 593.715c-28.763 0-52.065-23.301-52.065-52.065 0-7.282 1.456-14.199 4.127-20.511l-169.665-70.39-119.299 204.982c13.593 9.467 22.452 25.122 22.452 42.841 0 28.763-23.301 52.065-52.065 52.065s-52.065-23.301-52.065-52.065c0-17.598 8.738-33.132 22.087-42.598l-132.406-205.104-154.738 69.298c2.913 6.554 4.611 13.714 4.611 21.36 0 28.763-23.301 52.065-52.065 52.065s-52.307-23.18-52.307-51.943c0-28.399 22.695-51.458 50.973-52.065l80.706-347.948c3.035-13.229 14.806-22.574 28.399-22.574h513.244c13.593 0 25.364 9.345 28.399 22.574l80.828 347.948h0.85c28.763 0 52.065 23.301 52.065 52.065s-23.301 52.065-52.065 52.065zM744.774 177.319h-467.005l-62.501 269.548 132.65-59.468c13.107-5.825 28.641-1.334 36.409 10.801l125.732 194.909 112.746-193.695c7.282-12.622 22.816-17.84 36.287-12.257l148.79 61.774-63.109-271.611zM762.371 76.345l-502.201-0.122c-16.142 0-29.127-12.986-29.127-29.127s12.986-29.127 29.127-29.127l502.201 0.122c16.142 0 29.127 12.986 29.127 29.127s-12.986 29.127-29.127 29.127z"  horiz-adv-x="1024" />

    
    <glyph glyph-name="gongzhonghao" unicode="&#59028;" d="M621.105 406.209c40.778 32.161 66.87 81.92 66.87 137.747 0 96.726-78.643 175.37-175.37 175.37s-175.37-78.643-175.37-175.37c0-55.827 26.214-105.586 66.87-137.747-36.895-14.563-70.755-36.773-99.638-65.658-55.584-55.584-86.167-129.494-86.167-208.138 0-16.262 0-33.618 0.122-49.637s13.107-29.006 29.127-29.006h530.235c16.020 0 29.127 12.986 29.127 29.006v49.637c0 78.643-30.583 152.554-86.167 208.138-28.884 28.884-62.745 51.094-99.638 65.658zM395.491 543.956c0 64.565 52.55 117.115 117.115 117.115s117.115-52.55 117.115-117.115-52.55-117.115-117.115-117.115c-64.565-0.122-117.115 52.55-117.115 117.115zM748.658 131.808v-19.782h-472.101v20.389c0 130.222 105.95 236.051 236.051 236.051 130.222 0 236.051-105.828 236.051-236.051v-0.607zM871.477 350.018c-21.482 28.763-49.274 52.55-80.828 69.42 26.457 26.7 41.748 62.988 41.748 101.945 0 32.161-10.316 62.501-29.733 87.988-18.811 24.515-45.511 42.841-75.124 51.337-12.865 3.641-26.336-3.762-29.977-16.626s3.762-26.336 16.626-29.977c41.021-11.773 69.783-49.881 69.783-92.721 0-36.53-20.268-69.42-52.793-86.047-8.738-4.491-13.957-13.836-13.229-23.666 0.85-9.83 7.524-18.205 16.869-21.117 81.556-25.607 136.291-100.246 136.291-185.685v-40.778c0-13.349 10.801-24.272 24.151-24.394h0.122c13.349 0 24.272 10.801 24.272 24.151v40.899c-0.122 52.793-16.748 103.037-48.181 145.271zM285.415 390.432c9.467 2.913 16.142 11.286 16.869 21.117 0.85 9.83-4.369 19.175-13.229 23.666-32.526 16.626-52.793 49.516-52.793 86.047 0 42.841 28.641 80.949 69.783 92.721 12.865 3.762 20.268 17.113 16.626 29.977-3.762 12.865-17.113 20.268-29.977 16.626-29.613-8.496-56.313-26.821-75.124-51.337-19.419-25.486-29.733-55.827-29.733-87.988 0-38.958 15.292-75.245 41.748-101.945-31.434-16.869-59.346-40.656-80.828-69.42-31.554-42.235-48.181-92.479-48.181-145.271v-40.899c0-13.349 10.923-24.151 24.272-24.151h0.122c13.349 0 24.272 10.923 24.151 24.394v40.778c0 85.561 54.855 160.199 136.291 185.685z"  horiz-adv-x="1024" />

    
    <glyph glyph-name="xinxiliebiao" unicode="&#59029;" d="M543.069 636.799h334.234c15.655 0 28.521 12.865 28.521 28.521s-12.865 28.521-28.521 28.521h-334.234c-15.655 0-28.521-12.865-28.521-28.521s12.743-28.521 28.521-28.521zM877.181 534.126h-334.112c-15.655 0-28.521-12.865-28.521-28.521s12.865-28.521 28.521-28.521h334.234c15.655 0 28.521 12.865 28.521 28.521s-12.865 28.521-28.641 28.521zM370.369 754.521h-168.694c-46.846 0-84.955-38.108-84.955-84.955v-168.694c0-46.846 38.108-84.955 84.955-84.955h168.694c46.846 0 84.955 38.108 84.955 84.955v168.694c0 46.846-38.108 84.955-84.955 84.955zM401.923 500.873c0-17.355-14.199-31.554-31.554-31.554h-168.694c-17.355 0-31.554 14.199-31.554 31.554v168.694c0 17.355 14.199 31.554 31.554 31.554h168.694c17.355 0 31.554-14.199 31.554-31.554v-168.694zM877.181 295.284h-334.112c-15.655 0-28.521-12.865-28.521-28.521s12.865-28.521 28.521-28.521h334.234c15.655 0 28.521 12.865 28.521 28.521-0.122 15.655-12.865 28.521-28.641 28.521zM877.181 135.57h-334.112c-15.655 0-28.521-12.865-28.521-28.521s12.865-28.521 28.521-28.521h334.234c15.655 0 28.521 12.865 28.521 28.521-0.122 15.655-12.865 28.521-28.641 28.521zM370.369 356.086h-168.694c-46.846 0-84.955-38.108-84.955-84.955v-168.694c0-46.846 38.108-84.955 84.955-84.955h168.694c46.846 0 84.955 38.108 84.955 84.955v168.694c0 46.846-38.108 84.955-84.955 84.955zM401.923 102.437c0-17.355-14.199-31.554-31.554-31.554h-168.694c-17.355 0-31.554 14.199-31.554 31.554v168.694c0 17.355 14.199 31.554 31.554 31.554h168.694c17.355 0 31.554-14.199 31.554-31.554v-168.694z"  horiz-adv-x="1024" />

    
    <glyph glyph-name="nv" unicode="&#59030;" d="M816.985 687.286c-64.686 64.686-150.611 100.246-241.998 100.246s-177.311-35.559-241.998-100.246-100.246-150.611-100.246-241.998c0-81.678 28.399-158.864 80.464-220.516l-58.497-58.497-98.304 98.304c-10.923 10.923-29.006 10.559-40.414-0.85s-11.773-29.491-0.85-40.414l98.304-98.304-88.595-88.716c-11.408-11.408-11.408-29.855 0-41.142 11.408-11.408 29.855-11.408 41.142 0l88.837 88.837 98.304-98.304c10.923-10.923 29.006-10.559 40.414 0.85s11.773 29.491 0.85 40.414l-98.304 98.304 58.497 58.497c61.652-52.065 138.839-80.464 220.516-80.464 91.387 0 177.311 35.559 241.998 100.246 64.686 64.686 100.246 150.611 100.246 241.998-0.122 91.265-35.681 177.189-100.367 241.755zM574.988 161.299c-156.558 0-283.989 127.431-283.989 283.989s127.431 283.989 283.989 283.989 283.989-127.431 283.989-283.989-127.431-283.989-283.989-283.989z"  horiz-adv-x="1024" />

    
    <glyph glyph-name="nan" unicode="&#59031;" d="M883.371 784.377h-299.766c-16.142 0-29.127-12.986-29.127-29.127s12.986-29.127 29.127-29.127h230.347l-138.354-138.354c-61.774 52.55-139.325 81.191-221.366 81.191-91.387 0-177.311-35.559-241.998-100.246-64.686-64.686-100.246-150.611-100.246-241.998s35.559-177.311 100.246-241.998c64.686-64.686 150.611-100.246 241.998-100.246s177.311 35.559 241.998 100.246c64.686 64.686 100.246 150.611 100.246 241.998 0 81.313-28.157 158.257-79.857 219.788l137.626 137.626v-228.647c0-16.142 12.986-29.127 29.127-29.127s29.127 12.986 29.127 29.127v299.766c0 16.142-13.107 29.127-29.127 29.127zM454.231 42.727c-156.558 0-283.989 127.431-283.989 283.989s127.431 283.989 283.989 283.989c77.187 0 147.214-30.947 198.429-81.070 0.85-1.092 1.699-2.185 2.791-3.155 0.971-0.971 2.063-1.821 3.035-2.67 49.274-51.094 79.735-120.635 79.735-197.093 0-156.558-127.431-283.989-283.989-283.989z"  horiz-adv-x="1024" />

    
    <glyph glyph-name="xiaoxi" unicode="&#59034;" d="M257.987 414.826c0 0 0 0 0 0 0-28.218 22.876-51.094 51.094-51.094 28.218 0 51.094 22.876 51.094 51.094 0 0 0 0 0 0 0 0 0 0 0 0 0 28.218-22.876 51.094-51.094 51.094-28.218 0-51.094-22.876-51.094-51.094s0 0 0 0zM459.935 414.826c0 0 0 0 0 0 0-28.218 22.876-51.094 51.094-51.094 28.218 0 51.094 22.876 51.094 51.094 0 0 0 0 0 0 0 0 0 0 0 0 0 28.218-22.876 51.094-51.094 51.094-28.218 0-51.094-22.876-51.094-51.094s0 0 0 0zM661.883 414.826c0-28.218 22.876-51.094 51.094-51.094s51.094 22.876 51.094 51.094c0 28.218-22.876 51.094-51.094 51.094-28.218 0-51.094-22.876-51.094-51.094zM891.502 558.034c-20.995 43.449-50.851 82.527-88.959 115.902-77.551 68.084-180.346 105.465-289.451 105.465-109.227 0-212.021-37.501-289.451-105.465-38.108-33.375-67.963-72.332-88.959-115.902-21.845-45.39-32.89-93.571-32.89-143.209 0-58.254 15.899-116.144 45.875-167.602 26.214-44.905 63.351-85.075 107.892-116.873v-120.756c0-10.437 5.583-20.025 14.563-25.244 4.491-2.548 9.588-3.884 14.563-3.884s10.073 1.334 14.563 3.884l127.795 73.789c28.157-5.34 57.162-8.010 86.047-8.010 109.227 0 212.021 37.501 289.451 105.465 38.108 33.375 67.963 72.332 88.959 115.902 21.845 45.39 32.89 93.571 32.89 143.209 0.122 49.759-11.044 97.94-32.89 143.329zM513.092 108.385c-28.641 0-57.283 3.035-84.955 8.98-7.039 1.456-14.442 0.364-20.631-3.277l-93.693-54.128v85.682c0 9.83-4.976 18.932-13.107 24.394-89.444 58.619-140.781 147.82-140.781 244.789 0 168.938 158.379 306.32 353.166 306.32 194.666 0 353.166-137.383 353.166-306.32s-158.5-306.442-353.166-306.442z"  horiz-adv-x="1024" />

    
    <glyph glyph-name="youxiang" unicode="&#59038;" d="M834.446 682.553h-640.341c-50.176 0-91.022-40.846-91.022-91.022v-423.026c0-50.176 40.846-91.022 91.022-91.022h640.341c50.176 0 91.022 40.846 91.022 91.022v423.026c0 50.176-40.846 91.022-91.022 91.022zM870.855 168.505c0-20.025-16.384-36.409-36.409-36.409h-640.341c-20.025 0-36.409 16.384-36.409 36.409v423.026c0 20.025 16.384 36.409 36.409 36.409h640.341c20.025 0 36.409-16.384 36.409-36.409v-423.026zM786.773 537.941l-272.498-171.918-272.498 171.918c-12.743 8.078-29.582 4.21-37.661-8.533-8.078-12.743-4.21-29.582 8.533-37.661l286.72-180.907c4.551-2.845 9.557-4.21 14.563-4.21h0.91c5.006 0 10.013 1.365 14.563 4.21l286.72 180.907c12.743 8.078 16.611 24.917 8.533 37.661-8.306 12.857-25.145 16.611-37.888 8.533z"  horiz-adv-x="1024" />

    
    <glyph glyph-name="zhuye" unicode="&#59039;" d="M738.463-21.838h-162.506c-16.142 0-29.127 12.986-29.127 29.127v252.435c0 0.122-0.242 0.485-0.485 0.485h-76.337c-0.122 0-0.485-0.242-0.485-0.485v-252.435c0-16.142-12.986-29.127-29.127-29.127h-162.384c-48.667 0-88.231 39.564-88.231 88.231v256.561h-17.718c-27.428 0-52.065 16.262-62.988 41.506-10.801 25.122-5.703 54.25 13.229 74.153l296.975 313.602c24.030 25.364 57.769 39.929 92.721 39.929s68.691-14.563 92.721-39.929l296.854-313.602c18.811-19.903 24.030-49.030 13.229-74.153s-35.559-41.506-62.988-41.506h-25.122v-256.561c0-48.667-39.564-88.231-88.231-88.231zM605.085 36.417h133.378c16.506 0 29.977 13.471 29.977 29.977v285.689c0 16.142 12.986 29.127 29.127 29.127h54.25c3.155 0 7.524 1.578 9.467 6.19s0.122 8.86-1.942 11.165l-297.097 313.602c-13.229 13.957-31.069 21.724-50.366 21.724s-37.137-7.646-50.366-21.724l-296.975-313.602c-2.185-2.306-4.005-6.554-1.942-11.165 1.942-4.611 6.311-6.19 9.467-6.19h46.846c16.142 0 29.127-12.986 29.127-29.127v-285.689c0-16.506 13.471-29.977 29.977-29.977h133.378v223.308c0 32.404 26.336 58.74 58.74 58.74h76.337c32.404 0 58.74-26.336 58.74-58.74v-223.308z"  horiz-adv-x="1024" />

    
    <glyph glyph-name="tupianliebiao" unicode="&#59040;" d="M398.563 742.969h-163.84c-43.463 0-78.848-35.385-78.848-78.848v-163.84c0-43.463 35.385-78.848 78.848-78.848h163.84c43.463 0 78.848 35.385 78.848 78.848v163.84c0.114 43.463-35.271 78.848-78.848 78.848zM424.96 502.443c0-15.701-12.743-28.445-28.445-28.445h-159.517c-15.701 0-28.445 12.743-28.445 28.445v159.403c0 15.701 12.743 28.445 28.445 28.445h159.403c15.701 0 28.445-12.743 28.445-28.445v-159.403zM790.983 742.969h-163.84c-43.463 0-78.848-35.385-78.848-78.848v-163.84c0-43.463 35.385-78.848 78.848-78.848h163.84c43.463 0 78.848 35.385 78.848 78.848v163.84c0 43.463-35.385 78.848-78.848 78.848zM817.266 500.167c0-14.45-11.833-26.283-26.283-26.283h-163.84c-14.45 0-26.283 11.833-26.283 26.283v163.84c0 14.45 11.833 26.283 26.283 26.283h163.84c14.45 0 26.283-11.833 26.283-26.283v-163.84zM398.563 349.525h-163.84c-43.463 0-78.848-35.385-78.848-78.848v-163.84c0-43.463 35.385-78.848 78.848-78.848h163.84c43.463 0 78.848 35.385 78.848 78.848v163.84c0.114 43.463-35.271 78.848-78.848 78.848zM424.96 108.999c0-15.701-12.743-28.445-28.445-28.445h-159.517c-15.701 0-28.445 12.743-28.445 28.445v159.403c0 15.701 12.743 28.445 28.445 28.445h159.403c15.701 0 28.445-12.743 28.445-28.445v-159.403zM790.983 349.525h-163.84c-43.463 0-78.848-35.385-78.848-78.848v-163.84c0-43.463 35.385-78.848 78.848-78.848h163.84c43.463 0 78.848 35.385 78.848 78.848v163.84c0 43.463-35.385 78.848-78.848 78.848zM817.266 106.837c0-14.45-11.833-26.283-26.283-26.283h-163.84c-14.45 0-26.283 11.833-26.283 26.283v163.84c0 14.45 11.833 26.283 26.283 26.283h163.84c14.45 0 26.283-11.833 26.283-26.283v-163.84z"  horiz-adv-x="1024" />

    
    <glyph glyph-name="gengduo" unicode="&#58939;" d="M320 384m-48 0a48 48 0 1 1 96 0 48 48 0 1 1-96 0ZM512 384m-48 0a48 48 0 1 1 96 0 48 48 0 1 1-96 0ZM704 384m-48 0a48 48 0 1 1 96 0 48 48 0 1 1-96 0Z"  horiz-adv-x="1024" />

    
    <glyph glyph-name="rili" unicode="&#58938;" d="M288 576a32 32 0 0 1 32 32V768a32 32 0 0 1-64 0v-160a32 32 0 0 1 32-32zM448 352H224a32 32 0 0 1 0-64h224a32 32 0 0 1 0 64zM800 352H576a32 32 0 0 1 0-64h224a32 32 0 0 1 0 64zM448 192H224a32 32 0 0 1 0-64h224a32 32 0 0 1 0 64zM800 192H576a32 32 0 0 1 0-64h224a32 32 0 0 1 0 64zM736 576a32 32 0 0 1 32 32V768a32 32 0 0 1-64 0v-160a32 32 0 0 1 32-32zM928 736h-96a32 32 0 0 1 0-64h64v-160H128V672h64a32 32 0 0 1 0 64H96a32 32 0 0 1-32-32v-704a32 32 0 0 1 32-32h832a32 32 0 0 1 32 32V704a32 32 0 0 1-32 32zM128 16V448h768v-432zM384 672h256a32 32 0 0 1 0 64H384a32 32 0 0 1 0-64z"  horiz-adv-x="1024" />

    
    <glyph glyph-name="huiyuan1" unicode="&#58947;" d="M955 430.87a31.91 31.91 0 0 1 2 3.74l0.06 0.13a31.74 31.74 0 0 1 2.08 6.18v0.13a32 32 0 0 1 0.63 4.14v0.49q0.06 0.79 0.07 1.58v0.51 0.22c0 0.6 0 1.19-0.05 1.77v0.34q-0.06 0.88-0.16 1.74c0 0.15 0 0.29-0.06 0.44a31.83 31.83 0 0 1-0.85 4.18v0.08a31.76 31.76 0 0 1-1.54 4.33l-112 255.94c-0.06 0.14-0.13 0.27-0.2 0.41-0.22 0.49-0.46 1-0.71 1.46-0.12 0.24-0.26 0.48-0.39 0.71-0.22 0.4-0.45 0.79-0.68 1.19l-0.47 0.76c-0.09 0.15-0.18 0.29-0.27 0.44s-0.31 0.43-0.46 0.64-0.34 0.49-0.52 0.72l-0.87 1.11c-0.16 0.19-0.31 0.39-0.47 0.58-0.46 0.54-0.94 1.07-1.44 1.57l-0.2 0.19q-0.66 0.66-1.36 1.29l-0.54 0.46c-0.37 0.31-0.74 0.62-1.12 0.91l-0.64 0.48q-0.55 0.41-1.11 0.79l-0.68 0.45c-0.39 0.25-0.78 0.48-1.18 0.71l-0.67 0.39c-0.45 0.25-0.92 0.48-1.38 0.71l-0.53 0.26q-1 0.44-2 0.83l-0.53 0.19c-0.49 0.18-1 0.35-1.5 0.51l-0.78 0.22c-0.43 0.12-0.86 0.24-1.3 0.34l-0.85 0.19-1.31 0.24-0.84 0.13c-0.48 0.07-1 0.12-1.45 0.16l-0.72 0.07c-0.73 0.05-1.46 0.08-2.2 0.08H208c-0.74 0-1.47 0-2.2-0.08l-0.72-0.07c-0.48 0-1-0.09-1.45-0.16l-0.84-0.13-1.31-0.24-0.85-0.19c-0.44-0.1-0.87-0.22-1.3-0.34l-0.78-0.22c-0.5-0.16-1-0.33-1.5-0.51l-0.53-0.19q-1-0.38-2-0.83l-0.53-0.26c-0.47-0.23-0.93-0.46-1.38-0.71l-0.67-0.39c-0.4-0.23-0.79-0.47-1.18-0.71l-0.68-0.45q-0.57-0.38-1.11-0.79l-0.64-0.48c-0.38-0.29-0.75-0.6-1.12-0.91l-0.54-0.46q-0.7-0.62-1.36-1.29l-0.2-0.19c-0.5-0.51-1-1-1.44-1.57-0.16-0.19-0.31-0.39-0.47-0.58-0.3-0.36-0.59-0.73-0.87-1.11s-0.35-0.48-0.52-0.72-0.31-0.42-0.46-0.64-0.18-0.29-0.27-0.44l-0.47-0.76c-0.24-0.39-0.46-0.79-0.68-1.19-0.13-0.24-0.26-0.47-0.39-0.71-0.25-0.48-0.48-1-0.71-1.46-0.06-0.14-0.14-0.27-0.2-0.41l-112-255.94a31.76 31.76 0 0 1-1.54-4.33v-0.08a31.8 31.8 0 0 1-0.85-4.18l-0.05-0.43q-0.1-0.87-0.16-1.74v-0.34c0-0.59-0.05-1.18-0.05-1.77v-0.73q0-0.8 0.07-1.58v-0.49a32 32 0 0 1 0.63-4.14v-0.13a31.76 31.76 0 0 1 2.08-6.19l0.06-0.13a31.89 31.89 0 0 1 2-3.74l0.19-0.3a32.12 32.12 0 0 1 2.49-3.33l0.16-0.2 416-480c0.27-0.31 0.54-0.6 0.82-0.9l0.29-0.32c0.48-0.5 1-1 1.48-1.44l0.42-0.37q0.6-0.53 1.22-1l0.48-0.38c0.52-0.4 1.05-0.79 1.6-1.16l0.09-0.07c0.58-0.39 1.17-0.75 1.77-1.09l0.52-0.29q0.69-0.38 1.39-0.73l0.54-0.26c0.62-0.29 1.25-0.56 1.88-0.81l0.36-0.13q0.8-0.3 1.62-0.56l0.66-0.2q0.76-0.22 1.53-0.41l0.52-0.13q1-0.22 2-0.38l0.55-0.08q0.81-0.11 1.62-0.18l0.62-0.05c0.71 0 1.43-0.08 2.15-0.08s1.44 0 2.15 0.08l0.62 0.05q0.82 0.07 1.62 0.18l0.55 0.08q1 0.16 2 0.38l0.52 0.13q0.77 0.19 1.53 0.41l0.66 0.2q0.82 0.26 1.62 0.56l0.36 0.13c0.64 0.25 1.26 0.52 1.88 0.81l0.54 0.26q0.71 0.35 1.39 0.73l0.52 0.29c0.6 0.35 1.19 0.71 1.77 1.09l0.09 0.07c0.55 0.37 1.08 0.76 1.6 1.16l0.48 0.38q0.62 0.5 1.22 1l0.42 0.37c0.51 0.46 1 0.94 1.48 1.44l0.29 0.32c0.28 0.29 0.55 0.59 0.82 0.9l416 480 0.16 0.2a32.12 32.12 0 0 1 2.49 3.33zM207.15 622.23L265.9 480h-121zM379 480l133 171.74L645 480z m283.43-64L512 51.82 361.58 416z m-370.09 0l115-278.33L166.08 416z m439.33 0h126.25L616.7 137.67z m26.43 64l58.75 142.23L879.07 480z m-56.34 31.24L577.26 672h190.9zM446.74 672l-124.5-160.76L255.84 672z"  horiz-adv-x="1024" />

    
    <glyph glyph-name="gouwuche" unicode="&#58952;" d="M880 136h-0.18l-576.07 3.18a63.79 63.79 0 0 0-63.55 57.18l-61.11 488.76-57.37 11.5a32 32 0 0 0 12.55 62.76l57.37-11.47a63.91 63.91 0 0 0 51-54.87L303.75 204q0-0.39 0.09-0.79h0.16L880.18 200a32 32 0 0 0-0.17-64zM400 280a32 32 0 0 0-2.32 63.92l434.5 32c0 0.28 0 0.55 0.07 0.82L864 648H320a32 32 0 0 0 0 64h544a64 64 0 0 0 63.74-69.79q0-0.41-0.09-0.83l-31.83-271.74a63.79 63.79 0 0 0-59-57.55l-434.51-32c-0.76-0.09-1.56-0.09-2.31-0.09z m495.9 365.1zM368 56m-48 0a48 48 0 1 1 96 0 48 48 0 1 1-96 0ZM816 56m-48 0a48 48 0 1 1 96 0 48 48 0 1 1-96 0Z"  horiz-adv-x="1024" />

    
    <glyph glyph-name="shaixuan" unicode="&#58954;" d="M447.93-32.05A64.13 64.13 0 0 0 384 32V352.43L81.5 679.1A64 64 0 0 0 128 787h0.25l767.88-6a64 64 0 0 0 46.29-108L640 352.26V96a32 32 0 0 0-14.84-27l-145.72-92.62a32 32 0 0 0-2.85-1.61 64 64 0 0 0-28.66-6.82zM128 723l0.31-0.33 311.11-336A32 32 0 0 0 448 365v-332.79l128 81.34V365a32 32 0 0 0 8.72 22l311.14 329.85 0.14 0.15h-0.25z m768.12-5.85"  horiz-adv-x="1024" />

    
    <glyph glyph-name="shuaxin" unicode="&#58955;" d="M928 416a32 32 0 0 1-32-32 384 384 0 1 0-384 384c58.73 0 126.82-21.15 191.7-59.54 34.1-20.17 65.43-44 90.59-68.46H736a32 32 0 0 1 0-64h128a32 32 0 0 1 32 32V736a32 32 0 0 1-64 0v-43.72a559.52 559.52 0 0 1-95.7 71.26 531.85 531.85 0 0 1-107.57 48.92C588.41 825.43 549.14 832 512 832a448.11 448.11 0 0 1-174.39-860.78A447.88 447.88 0 0 1 960 384a32 32 0 0 1-32 32z"  horiz-adv-x="1024" />

    
    <glyph glyph-name="weizhi" unicode="&#58960;" d="M512 608a160 160 0 1 1 160-160 160 160 0 0 1-160 160z m0-256a96 96 0 1 0 96 96 96 96 0 0 0-96-96zM511.26 832c-212.51-0.4-385-174.69-383.25-387.2a382.91 382.91 0 0 1 120.68-276.3h-0.19l241.08-227.33a32 32 0 0 1 43.87 0L773.39 166.7A383 383 0 0 1 896 448c0 212.32-172.32 384.4-384.74 384zM748 231.92a321.82 321.82 0 0 0-33.72-31.86L511.5 8.47 299.33 208.92q-7.3 6.5-14.2 13.42A319 319 0 0 0 192 448c0 176.73 143.27 320 320 320s320-143.27 320-320a318.83 318.83 0 0 0-84-216.08z"  horiz-adv-x="1024" />

    
    <glyph glyph-name="align-left" unicode="&#58676;" d="M128 597.333333h768a42.666667 42.666667 0 0 1 0 85.333334H128a42.666667 42.666667 0 0 1 0-85.333334z m0-170.666666h597.333333a42.666667 42.666667 0 0 1 0 85.333333H128a42.666667 42.666667 0 0 1 0-85.333333z m768-85.333334H128a42.666667 42.666667 0 0 1 0-85.333333h768a42.666667 42.666667 0 0 1 0 85.333333zM725.333333 170.666667H128a42.666667 42.666667 0 0 1 0-85.333334h597.333333a42.666667 42.666667 0 0 1 0 85.333334z"  horiz-adv-x="1024" />

    
    <glyph glyph-name="align-right" unicode="&#58677;" d="M938.666667 640a42.666667 42.666667 0 0 1-42.666667 42.666667H128a42.666667 42.666667 0 0 1 0-85.333334h768a42.666667 42.666667 0 0 1 42.666667 42.666667z m0-170.666667a42.666667 42.666667 0 0 1-42.666667 42.666667H298.666667a42.666667 42.666667 0 0 1 0-85.333333h597.333333a42.666667 42.666667 0 0 1 42.666667 42.666666zM85.333333 298.666667a42.666667 42.666667 0 0 1 42.666667-42.666667h768a42.666667 42.666667 0 0 1 0 85.333333H128a42.666667 42.666667 0 0 1-42.666667-42.666666z m170.666667-170.666667a42.666667 42.666667 0 0 1 42.666667-42.666667h597.333333a42.666667 42.666667 0 0 1 0 85.333334H298.666667a42.666667 42.666667 0 0 1-42.666667-42.666667z"  horiz-adv-x="1024" />

    
    <glyph glyph-name="ellipsis" unicode="&#58692;" d="M170.666667 512C99.978667 512 42.666667 454.688 42.666667 384s57.312-128 128-128 128 57.312 128 128-57.312 128-128 128z m0-170.666667a42.666667 42.666667 0 1 0 0 85.333334 42.666667 42.666667 0 0 0 0-85.333334z m341.333333 170.666667c-70.688 0-128-57.312-128-128s57.312-128 128-128 128 57.312 128 128-57.312 128-128 128z m0-170.666667a42.666667 42.666667 0 1 0 0 85.333334 42.666667 42.666667 0 0 0 0-85.333334z m341.333333 170.666667c-70.688 0-128-57.312-128-128s57.312-128 128-128 128 57.312 128 128-57.312 128-128 128z m0-170.666667a42.666667 42.666667 0 1 0 0 85.333334 42.666667 42.666667 0 0 0 0-85.333334z"  horiz-adv-x="1024" />

    
    <glyph glyph-name="quan" unicode="&#983814;" d="M237.381818 495.709091h69.818182V430.545455H237.381818zM237.381818 360.727273h69.818182v-65.163637H237.381818zM986.763636 770.327273H377.018182c-13.963636 0-23.272727-9.309091-32.581818-18.618182-13.963636-27.927273-37.236364-41.890909-69.818182-41.890909s-51.2 13.963636-65.163637 41.890909c-9.309091 13.963636-18.618182 18.618182-32.581818 18.618182h-139.636363c-23.272727 0-37.236364-13.963636-37.236364-32.581818v-702.836364c0-18.618182 13.963636-37.236364 37.236364-37.236364h134.981818c13.963636 0 27.927273 9.309091 32.581818 23.272728 9.309091 32.581818 41.890909 55.854545 74.472727 55.854545s65.163636-23.272727 74.472728-55.854545c4.654545-13.963636 18.618182-23.272727 32.581818-23.272728h605.090909c18.618182 0 37.236364 13.963636 37.236363 37.236364V737.745455c-4.654545 18.618182-18.618182 32.581818-41.890909 32.581818z m-32.581818-702.836364H404.945455c-18.618182 37.236364-55.854545 65.163636-97.745455 74.472727v88.436364H237.381818v-88.436364c-41.890909-9.309091-74.472727-37.236364-93.090909-74.472727H69.818182V700.509091h88.436363c18.618182-27.927273 46.545455-46.545455 79.127273-55.854546v-83.781818h69.818182V644.654545c37.236364 9.309091 65.163636 27.927273 88.436364 55.854546h558.545454v-633.018182z"  horiz-adv-x="1028" />

    
    <glyph glyph-name="dianpu" unicode="&#983829;" d="M907.636364 826.181818c-4.654545 13.963636-13.963636 18.618182-27.927273 18.618182H139.636364c-13.963636 0-23.272727-9.309091-27.927273-18.618182L0 518.981818v-9.309091c0-65.163636 37.236364-121.018182 97.745455-144.290909 9.309091-4.654545 18.618182-4.654545 32.581818-9.309091v-414.254545c0-13.963636 9.309091-23.272727 23.272727-23.272727h721.454545c13.963636 0 23.272727 9.309091 23.272728 23.272727v414.254545c9.309091 0 18.618182 4.654545 27.927272 9.309091 55.854545 23.272727 97.745455 79.127273 97.745455 144.290909v4.654546l-116.363636 311.854545z m-74.472728-837.818182H195.490909v377.018182c32.581818 9.309091 60.509091 27.927273 79.127273 51.2 27.927273-37.236364 74.472727-60.509091 121.018182-60.509091s93.090909 23.272727 121.018181 60.509091c27.927273-37.236364 74.472727-60.509091 121.018182-60.509091s93.090909 23.272727 121.018182 60.509091c18.618182-27.927273 41.890909-46.545455 74.472727-51.2v-377.018182z m41.890909 432.872728c-46.545455 0-88.436364 37.236364-88.436363 88.436363v9.309091h-65.163637v-9.309091c0-46.545455-37.236364-88.436364-88.436363-88.436363-46.545455 0-88.436364 37.236364-88.436364 88.436363v9.309091h-65.163636v-9.309091c0-46.545455-37.236364-88.436364-88.436364-88.436363-46.545455 0-88.436364 37.236364-88.436363 88.436363v9.309091H242.036364v-9.309091c0-46.545455-37.236364-88.436364-88.436364-88.436363-46.545455 0-83.781818 37.236364-88.436364 83.781818l97.745455 274.618182h688.872727l97.745455-274.618182c4.654545-46.545455-32.581818-83.781818-74.472728-83.781818z"  horiz-adv-x="1024" />

    
    <glyph glyph-name="icon-test" unicode="&#58881;" d="M832 832h-64v32c0 17.673-14.327 32-32 32s-32-14.327-32-32v-32h-384v32c0 17.673-14.327 32-32 32s-32-14.327-32-32v-32h-64c-70.692 0-128-57.308-128-128v-640c0-70.692 57.308-128 128-128h640c70.692 0 128 57.308 128 128v640c0 70.692-57.308 128-128 128zM896 64c0-35.346-28.654-64-64-64h-640c-35.346 0-64 28.654-64 64v640c0 35.346 28.654 64 64 64h64v-32c0-17.673 14.327-32 32-32s32 14.327 32 32v32h384v-32c0-17.673 14.327-32 32-32s32 14.327 32 32v32h64c35.346 0 64-28.654 64-64v-640zM742.4 598.72l-189.12-189.184c-0.704-0.64-0.96-1.6-1.6-2.368-11.677 5.567-25.375 8.823-39.834 8.832-21.798-0-41.766-7.68-57.958-20.032l-119.296 103.68c-5.29 4.44-12.173 7.137-19.686 7.137-16.966 0-30.72-13.754-30.72-30.72 0-9.042 3.906-17.172 10.124-22.793l125.275-108.824c-2.26-7.625-3.57-16.389-3.592-25.455 0.008-52.012 42.989-94.993 96.008-94.993 53.019 0 96 42.981 96 96-0.137 15.15-3.717 29.432-9.992 42.146 1.16-0.61 1.928-0.354 2.568 0.222l189.12 189.12c6.847 6.154 11.133 15.040 11.133 24.927 0 18.486-14.986 33.472-33.472 33.472-9.903 0-18.801-4.3-24.929-11.135zM512 288c-17.6 0-32 14.4-32 32s14.4 32 32 32 32-14.4 32-32-14.4-32-32-32z"  horiz-adv-x="1024" />

    
    <glyph glyph-name="icon-test1" unicode="&#58882;" d="M96 832v-385.408c19.84 14.976 40.96 28.288 64 38.464v282.944h768v-512h-320c-0.092 106.672-65.446 198.057-158.285 236.39 6.927 0.705 14.693 4.101 20.458 9.582l66.531 60.588 88.64-82.944c-0.011-0.305-0.018-0.663-0.018-1.022 0-8.407 3.516-15.992 9.158-21.366 5.881-5.571 13.827-8.99 22.572-8.99 8.745 0 16.691 3.419 22.575 8.993l6.833 7.666 1.024 0.64c0.704 0.64 0.96 1.472 1.472 2.176l165.376 184.896c5.76 5.419 9.347 13.090 9.347 21.6 0 8.51-3.587 16.181-9.331 21.586-5.884 5.574-13.831 8.993-22.575 8.993-8.745 0-16.691-3.419-22.575-8.993l-145.585-162.738-100.736 94.272c-6.13 5.798-14.425 9.363-23.552 9.363s-17.422-3.565-23.568-9.378c-0.688-0.625-0.944-1.521-1.52-2.225-1.6-1.088-3.456-1.728-4.864-3.072l-84.48-76.928c-5.763-5.429-9.351-13.112-9.351-21.632s3.588-16.203 9.336-21.618c1.423-1.422 3.279-2.126 4.943-3.15-23.946 8.379-51.553 13.254-80.288 13.331l2.464-256.019h249.536c4.224-20.672 6.464-42.048 6.464-64h384v640h-896zM416 320v116.224c58.826-21.251 103.464-68.924 120.103-128.299l-120.103 12.075zM480 192h-192v256c-141.385 0-256-114.615-256-256s114.615-256 256-256c141.385 0 256 114.615 256 256h-64zM288 0c-106.039 0-192 85.961-192 192 0.153 82.868 52.956 153.364 126.734 179.83l1.266-243.83h244.224c-26.913-75.1-97.426-127.88-180.283-128z"  horiz-adv-x="1024" />

    
    <glyph glyph-name="icon-test2" unicode="&#58883;" d="M832 832h-64v32c0 17.673-14.327 32-32 32s-32-14.327-32-32v-32h-384v32c0 17.673-14.327 32-32 32s-32-14.327-32-32v-32h-64c-70.692 0-128-57.308-128-128v-640c0-70.692 57.308-128 128-128h640c70.692 0 128 57.308 128 128v640c0 70.692-57.308 128-128 128zM896 64c0-35.346-28.654-64-64-64h-640c-35.346 0-64 28.654-64 64v640c0 35.346 28.654 64 64 64h64v-32c0-17.673 14.327-32 32-32s32 14.327 32 32v32h384v-32c0-17.673 14.327-32 32-32s32 14.327 32 32v32h64c35.346 0 64-28.654 64-64v-640zM388.224 566.464l-103.36-103.488-39.808 39.872c-5.457 4.84-12.681 7.796-20.596 7.796-17.178 0-31.104-13.926-31.104-31.104 0-7.914 2.956-15.138 7.824-20.628l65.764-65.824c5.626-5.559 13.363-8.992 21.902-8.992 4.387 0 8.562 0.906 12.349 2.542 6.767 2.107 12.589 6.271 16.775 11.752l119.342 118.987c6.256 6.293 10.123 14.967 10.123 24.544s-3.867 18.251-10.125 24.546c-6.291 6.254-14.965 10.121-24.542 10.121-9.577 0-18.251-3.867-24.546-10.125zM544 480h-64c-17.673 0-32-14.327-32-32s14.327-32 32-32h64c17.673 0 32 14.327 32 32s-14.327 32-32 32zM768 480h-64c-17.673 0-32-14.327-32-32s14.327-32 32-32h64c17.673 0 32 14.327 32 32s-14.327 32-32 32zM544 288h-64c-17.673 0-32-14.327-32-32s14.327-32 32-32h64c17.673 0 32 14.327 32 32s-14.327 32-32 32zM768 288h-64c-17.673 0-32-14.327-32-32s14.327-32 32-32h64c17.673 0 32 14.327 32 32s-14.327 32-32 32zM320 288h-64c-17.673 0-32-14.327-32-32s14.327-32 32-32h64c17.673 0 32 14.327 32 32s-14.327 32-32 32z"  horiz-adv-x="1024" />

    
    <glyph glyph-name="chanpinpeizhi" unicode="&#59107;" d="M0 106.666667c0 129.621333 105.066667 234.666667 234.666667 234.666666h170.645333A64 64 0 0 0 469.333333 277.312V106.666667c0-129.621333-105.066667-234.666667-234.666666-234.666667-129.621333 0-234.666667 105.066667-234.666667 234.666667z m85.333333 0c0-82.474667 67.029333-149.333333 149.333334-149.333334 82.474667 0 149.333333 67.029333 149.333333 149.333334v149.333333h-149.333333c-82.474667 0-149.333333-67.029333-149.333334-149.333333z m938.666667 554.666666c0-129.621333-105.066667-234.666667-234.666667-234.666666h-170.645333A64 64 0 0 0 554.666667 490.688V661.333333c0 129.621333 105.066667 234.666667 234.666666 234.666667 129.621333 0 234.666667-105.066667 234.666667-234.666667z m-85.333333 0c0 82.474667-67.029333 149.333333-149.333334 149.333334-82.474667 0-149.333333-67.029333-149.333333-149.333334v-149.333333h149.333333c82.474667 0 149.333333 67.029333 149.333334 149.333333zM0 661.333333C0 790.933333 105.045333 896 234.666667 896c129.6 0 234.666667-105.045333 234.666666-234.666667v-170.645333A64 64 0 0 0 405.312 426.666667H234.666667C105.066667 426.666667 0 531.712 0 661.333333z m85.333333 0c0-82.304 66.858667-149.333333 149.333334-149.333333h149.333333v149.333333c0 82.304-66.858667 149.333333-149.333333 149.333334-82.304 0-149.333333-66.858667-149.333334-149.333334z m920.704-518.613333c9.898667 0 18.026667-8.106667 17.962667-18.048v-36.096c0-9.962667-8.128-18.069333-18.026667-18.069333H984.32c-9.898667 0-20.437333-7.744-23.424-17.216l-12.416-30.229334c-4.672-8.768-2.773333-21.717333 4.224-28.693333l15.402667-15.36c7.04-7.04 7.04-18.517333 0-25.557333l-25.6-25.536a18.090667 18.090667 0 0 0-25.514667 0l-15.296 15.36c-6.997333 7.04-19.946667 8.917333-28.693333 4.202666l-30.250667-12.437333c-9.450667-2.944-17.237333-13.461333-17.237333-23.402667v-21.589333a18.133333 18.133333 0 0 0-18.069334-18.048h-36.074666a18.133333 18.133333 0 0 0-18.090667 18.048v21.589333c0 9.941333-7.722667 20.458667-17.237333 23.402667l-30.293334 12.437333c-8.746667 4.693333-21.632 2.816-28.586666-4.181333l-15.424-15.381333a18.069333 18.069333 0 0 0-25.493334 0l-25.557333 25.536a18.133333 18.133333 0 0 0 0 25.557333l15.36 15.36c7.04 6.976 8.917333 19.925333 4.266667 28.693333l-12.501334 30.229334c-2.944 9.472-13.461333 17.216-23.381333 17.28h-21.674667a18.090667 18.090667 0 0 0-18.069333 18.026666v36.074667c0 9.962667 8.106667 18.069333 18.090667 18.069333h21.653333c9.92 0 20.48 7.744 23.402667 17.237334l12.458666 30.250666c4.693333 8.768 2.773333 21.653333-4.266666 28.714667l-15.317334 15.36a18.048 18.048 0 0 0 0 25.536l25.536 25.493333a18.026667 18.026667 0 0 0 25.493334 0l15.402666-15.36c7.04-6.997333 19.904-8.917333 28.672-4.224l30.229334 12.394667c9.514667 2.965333 17.237333 13.482667 17.237333 23.466667v21.653333a18.133333 18.133333 0 0 0 18.090667 18.069333h36.074666a18.133333 18.133333 0 0 0 18.069334-18.069333v-21.674667c0-9.941333 7.786667-20.48 17.237333-23.402666l30.186667-12.437334c8.768-4.693333 21.696-2.773333 28.693333 4.224l15.402667 15.36a18.048 18.048 0 0 0 25.536 0l25.557333-25.536c7.04-6.997333 7.04-18.474667 0-25.536l-15.36-15.36c-7.04-7.04-8.917333-19.946667-4.245333-28.672l12.416-30.250666c2.986667-9.493333 13.482667-17.237333 23.402666-17.237334h21.717334z m-136.064-34.645333a82.048 82.048 0 1 1-164.117333 0 82.048 82.048 0 0 1 82.069333-82.026667 82.026667 82.026667 0 0 1 82.048 82.026667z"  horiz-adv-x="1024" />

    
    <glyph glyph-name="shuaxin1" unicode="&#58701;" d="M854 560.7l-0.3-0.2c-5.6 9.3-15.9 15.6-27.6 15.6-17.8 0-32.2-14.4-32.2-32.1 0-5.3 1.3-10.3 3.6-14.7h-0.1c22-43.4 34.4-92.5 34.4-144.5C831.8 208.2 688.6 65 512 65S192.2 208.1 192.2 384.8c0 152.4 106.5 279.2 249.1 311.2l-33.6-43.7c-10.8-14-8.1-34.2 5.9-45 14-10.8 34.2-8.1 45 5.9l75.3 97.8c6.5 5.9 10.6 14.4 10.6 23.8 0 11.3-5.9 21.2-14.7 27L429.3 838.9c-13.8 10.6-33.8 8-44.4-5.7l-0.6-0.8c-10.6-13.8-8-33.7 5.8-44.3l38.4-29.5C257 720.1 128.9 566.9 128.9 383.8c0-212.1 172-384.1 384.1-384.1s384.1 172 384.1 384.1c0 63.8-15.5 124-43.1 176.9zM708.9 637.9a32.2 32.1 0 1 1 64.4 0 32.2 32.1 0 1 1-64.4 0Z"  horiz-adv-x="1024" />

    
    <glyph glyph-name="youjiantou" unicode="&#58710;" d="M918.6 406.7L646.1 679.2c-12.3 12.3-32.5 12.3-44.8 0l-0.7-0.7c-12.3-12.3-12.3-32.4 0-44.7l218.7-218.7H257.6c-17.3 0-31.5-14.2-31.5-31.5s14.2-31.5 31.5-31.5h560.1L601.2 135.5c-12.5-12.5-12.5-32.9 0-45.4s32.9-12.5 45.4 0l271.1 271.1s0.1 0.1 0.2 0.1l0.7 0.7c12.3 12.3 12.3 32.4 0 44.7zM97.6 383.4a31.8 31.7 0 1 1 63.6 0 31.8 31.7 0 1 1-63.6 0Z"  horiz-adv-x="1024" />

    
    <glyph glyph-name="zuojiantou" unicode="&#58711;" d="M767.7 415.1H207.1l217.7 217.7c12.3 12.3 12.3 32.4 0 44.7l-0.7 0.7c-12.3 12.3-32.4 12.3-44.7-0.1L107 405.7c-12.3-12.3-12.3-32.4 0-44.7l0.6-0.7c0.1 0 0.2-0.1 0.2-0.1l271.1-271.1c12.5-12.5 32.9-12.5 45.4 0s12.5 32.9 0 45.4L206.7 352.1h561c17.3 0 31.5 14.2 31.5 31.5s-14.2 31.5-31.5 31.5zM864.1 383.4a31.8 31.7 0 1 1 63.6 0 31.8 31.7 0 1 1-63.6 0Z"  horiz-adv-x="1024" />

    
    <glyph glyph-name="shezhi" unicode="&#58885;" d="M986.746539 471.536573l-42.140974 42.140974a122.147749 122.147749 0 0 0-36.033586 86.114162v61.073875a122.147749 122.147749 0 0 1-122.147748 122.147748h-61.073875a122.147749 122.147749 0 0 0-86.114162 36.033586L598.316698 859.966414a122.147749 122.147749 0 0 1-172.839065 0l-42.140973-42.140973a122.147749 122.147749 0 0 0-86.114163-36.033586h-61.073874a122.147749 122.147749 0 0 1-122.147749-122.147749v-61.073874a122.147749 122.147749 0 0 0-36.033586-86.114163l-42.140973-42.140973a122.147749 122.147749 0 0 1 0-172.839065l42.140973-42.140973a122.147749 122.147749 0 0 0 36.033586-86.114163v-61.073874a122.147749 122.147749 0 0 1 122.147749-122.147749h61.073874a122.147749 122.147749 0 0 0 86.114163-36.033585l42.140973-42.140974a122.147749 122.147749 0 0 1 172.839065 0l42.140973 42.140974a122.147749 122.147749 0 0 0 86.114163 36.033585h61.073874a122.147749 122.147749 0 0 1 122.147749 122.147749v61.073874a122.147749 122.147749 0 0 0 36.033586 86.114163l42.140973 42.140973a122.147749 122.147749 0 0 1-1.221477 174.060542z m-43.362451-129.476613l-42.140973-42.140974a183.221623 183.221623 0 0 1-53.74501-129.476613v-61.073874a61.073874 61.073874 0 0 0-61.073874-61.073875h-61.073875a183.221623 183.221623 0 0 1-129.476613-53.745009l-42.140973-42.140974a61.073874 61.073874 0 0 0-86.114163 0L428.531327-4.228908a183.221623 183.221623 0 0 1-129.476613 53.74501h-61.073875a61.073874 61.073874 0 0 0-61.073874 61.073874v61.073874A183.221623 183.221623 0 0 1 123.161955 299.918986l-42.140973 42.140974a61.073874 61.073874 0 0 0 0 86.114163L123.161955 468.48288a183.221623 183.221623 0 0 1 53.74501 129.476613v61.073875a61.073874 61.073874 0 0 0 61.073874 61.073874h61.073875A183.221623 183.221623 0 0 1 428.531327 773.852251l42.140973 42.140974a61.073874 61.073874 0 0 0 86.114163 0l40.308757-42.140974a183.221623 183.221623 0 0 1 129.476614-53.745009h61.073874a61.073874 61.073874 0 0 0 61.073875-61.073874v-61.073875A183.221623 183.221623 0 0 1 901.243115 468.48288l42.140973-42.140974a61.073874 61.073874 0 0 0 0-86.114162zM511.591796 599.180971a213.75856 213.75856 0 1 1 213.75856-213.75856 213.75856 213.75856 0 0 1-213.75856 213.75856z m0-366.443246a152.684686 152.684686 0 1 0 152.684686 152.684686 152.684686 152.684686 0 0 0-152.684686-152.684686z"  horiz-adv-x="1026" />

    
    <glyph glyph-name="erji-jiaoseguanli" unicode="&#60061;" d="M1004.8 544L524.8 780.8c-6.4 6.4-19.2 6.4-25.6 0L19.2 544c-12.8 0-19.2-12.8-19.2-25.6s6.4-25.6 19.2-25.6L499.2 256c6.4 0 6.4-6.4 12.8-6.4s6.4 0 12.8 6.4l377.6 185.6v-268.8c0-19.2 12.8-32 32-32s32 12.8 32 32V473.6l38.4 19.2c12.8 0 19.2 12.8 19.2 25.6s-6.4 25.6-19.2 25.6zM512 320L102.4 518.4 512 716.8l409.6-198.4L512 320zM793.6 320c-19.2 0-32-12.8-32-32v-185.6c-140.8-64-358.4-64-499.2 0V288c0 19.2-12.8 32-32 32s-32-12.8-32-32v-204.8c0-12.8 6.4-25.6 19.2-25.6 83.2-44.8 185.6-64 294.4-64s211.2 25.6 294.4 64c12.8 6.4 19.2 19.2 19.2 25.6V288c0 19.2-12.8 32-32 32z"  horiz-adv-x="1024" />

    
    <glyph glyph-name="erji-gaojingbaobiao" unicode="&#60062;" d="M915.2 89.6L832 236.8V512c0 96-44.8 185.6-115.2 249.6-32 25.6-70.4 44.8-108.8 57.6C601.6 864 563.2 896 512 896S422.4 864 409.6 819.2c-70.4-25.6-134.4-76.8-172.8-140.8-12.8-12.8-6.4-32 6.4-44.8 12.8-6.4 32-6.4 44.8 12.8C326.4 704 377.6 742.4 448 761.6c12.8 6.4 25.6 12.8 25.6 32-6.4 19.2 12.8 38.4 38.4 38.4 25.6 0 44.8-19.2 44.8-44.8 0-12.8 12.8-25.6 25.6-32 38.4-12.8 70.4-25.6 102.4-51.2 57.6-51.2 89.6-121.6 89.6-198.4v-275.2c0-6.4 0-12.8 6.4-12.8l57.6-108.8H185.6l57.6 108.8c0 6.4 6.4 12.8 6.4 12.8V332.8h57.6c12.8 0 25.6 6.4 32 19.2l51.2 115.2 83.2-134.4c6.4-12.8 19.2-19.2 25.6-12.8 12.8 0 19.2 6.4 25.6 19.2l153.6 288c6.4 12.8 0 32-12.8 44.8-12.8 6.4-32 0-44.8-12.8l-128-236.8-76.8 121.6c-6.4 12.8-19.2 19.2-32 12.8-12.8 0-19.2-6.4-25.6-19.2L288 396.8H217.6c-19.2 0-32-12.8-32-32v-121.6l-83.2-147.2c-6.4-12.8-6.4-19.2 0-32s19.2-12.8 25.6-12.8h172.8C320-51.2 403.2-128 505.6-128s185.6 76.8 198.4 172.8h185.6c12.8 0 19.2 6.4 25.6 12.8 6.4 12.8 6.4 19.2 0 32zM505.6-64c-64 0-121.6 44.8-134.4 108.8H640c-12.8-64-70.4-108.8-134.4-108.8z"  horiz-adv-x="1024" />

    
    <glyph glyph-name="erji-peieguanli" unicode="&#60084;" d="M96 640h102.4v-38.4c0-19.2 12.8-32 32-32s32 12.8 32 32V640h665.6c19.2 0 32 12.8 32 32s-12.8 32-32 32H262.4v38.4c0 19.2-12.8 32-32 32s-32-12.8-32-32V704H96c-19.2 0-32-12.8-32-32s12.8-32 32-32zM928 428.8h-89.6v38.4c0 19.2-12.8 32-32 32s-32-12.8-32-32v-38.4H96c-19.2 0-32-12.8-32-32s12.8-32 32-32h678.4v-38.4c0-19.2 12.8-32 32-32s32 12.8 32 32v38.4h89.6c19.2 0 32 12.8 32 32s-12.8 32-32 32zM928 128H262.4v38.4c0 19.2-12.8 32-32 32s-32-12.8-32-32v-38.4H96c-19.2 0-32-12.8-32-32s12.8-32 32-32h102.4v-38.4c0-19.2 12.8-32 32-32s32 12.8 32 32V64h665.6c19.2 0 32 12.8 32 32s-12.8 32-32 32z"  horiz-adv-x="1024" />

    
    <glyph glyph-name="zhuye1" unicode="&#58888;" d="M957.1 430.8L586.9 799.5C566.2 820.2 538.7 830 509.5 830h-0.1c-29.3 0-56.8-10-77.5-30.7L61.5 427.8c-14.2-14.3-14.2-37 0.1-51.2 7.1-7.1 16.4-10.4 25.7-10.4 9.4 0 18.7 3.7 25.9 10.8l370.4 365.3c15.9 15.9 41 10.8 51.7 0.1l370.2-366.8c14.3-14.3 37.4-12.5 51.6 1.7 14.3 14.4 14.3 39.2 0 53.5zM569.5 542.5c-18.2 19.9-37.5 26.7-60.1 26.7-20.2 0-39.8-4.2-60.1-26.8l-228-223.2c-20.6-20.7-35.3-45.6-35.3-74.7V-16c0-20.2 13.3-36.5 33.5-36.5S253-36.2 253-16V244.5c0 9.7 10.2 18.9 17 25.7l227.7 225.7c3 3.1 8.2 3.5 10 3.5 1.8 0 6.2-0.4 9.3-3.5l225.8-224.3c6.9-6.9 12.2-16.1 12.2-25.8V-16c0-20.2 13.3-36.5 33.5-36.5S822-36.2 822-16V245.7c0 29.2-9.5 54.2-30.1 74.9L569.5 542.5z"  horiz-adv-x="1024" />

    
    <glyph glyph-name="gouwuche1" unicode="&#58886;" d="M907.7 771.9c-19 31.2-52.2 60.1-88.8 60.1H130.7C111.6 832 96 811.1 96 792s15.5-40 34.7-40h688.2c17.6 0 26.5-16.5 29.6-21.5 3-5 9.3-20.8 1.2-36.4L718.5 446.7c-6-11.6-17.8-11.7-30.8-11.7H400c-19.1 0-26-1-26 18.1V622.4c0 19.1-20.4 34.7-39.5 34.7S295 641.5 295 622.4v-169.3c0-57.3 47.7-97.1 105-97.1h287.7c39.1 0 74.5 18.1 92.4 52.9l131.2 257.9c16.8 32.4 15.4 73.9-3.6 105.1zM325.6 265.3c-90.3 0-163.7-73.4-163.7-163.7s73.4-163.7 163.7-163.7c90.3 0 163.7 73.4 163.7 163.7s-73.4 163.7-163.7 163.7z m0-258.1c-52.1 0-94.4 42.4-94.4 94.4s42.4 94.4 94.4 94.4 94.4-42.4 94.4-94.4-42.3-94.4-94.4-94.4zM732.5 269.3c-90.3 0-163.7-73.4-163.7-163.7s73.4-163.7 163.7-163.7 163.7 73.4 163.7 163.7-73.4 163.7-163.7 163.7z m0-258.1c-52.1 0-94.4 42.4-94.4 94.4s42.4 94.4 94.4 94.4 94.4-42.4 94.4-94.4-42.3-94.4-94.4-94.4z"  horiz-adv-x="1024" />

    
    <glyph glyph-name="shezhi1" unicode="&#58889;" d="M950.8 452.7c10.8 65.8 1.3 132.4-27.6 192.4-4.7 9.8-15.5 18.3-26.2 20.1-10.7 1.8-23.2 0-30.9-7.7L736.6 528.2c-25.1-25.1-63.7-27.4-88.9-2.3-25.1 25.1-22.9 63.7 2.3 88.9l128.9 128.9c7.7 7.7 10.6 19.3 8.7 30.1-1.9 10.7-9.2 20.2-19.1 24.8C709 826.1 642.9 835.2 577.6 824.3c-67-11.1-127.8-42.2-175.7-90.1-49.3-49.3-80.8-111.8-91.1-180.9-2.7-18.3 9.8-35.2 28.1-38 18.3-2.7 35.3 9.9 38 28.1 8.2 54.8 30.3 107.3 69.4 146.3 64.2 64.2 154.3 92 241 70.5l-91.4-91.4c-51.2-51.2-52-133.7-0.8-184.8 51.2-51.2 133.7-50.4 184.8 0.8l92.7 92.7c19.7-45.2 14.5-74.4 8.6-110.3-8.7-53.2-31.9-103.4-70.3-141.9-45.1-45.1-103.9-72.7-167.2-76.1-42.9-2.3-87.2 7.6-125.8 26.1-12.8 6.2-29.3 4.8-39.3-5.3L303.8 95.4c-25.1-25.1-63.7-27.4-88.9-2.3-25.1 25.1-22.9 63.7 2.3 88.9l175.1 175.1c13.1 13.1 9.6 37.6-3.4 50.7s-37.6 16.5-50.7 3.4L163.1 236.1c-51.2-51.2-52-133.7-0.8-184.8 51.2-51.2 133.7-50.4 184.8 0.8l158.7 158.7c45.5-19.5 92.7-27.9 138.7-25.5 79.8 4.2 156.8 36 213.6 92.8 48.5 48.4 81.7 107.6 92.7 174.6z"  horiz-adv-x="1024" />

    
    <glyph glyph-name="viber" unicode="&#58890;" d="M887.978667 796.032c-25.429333 23.424-128.256 98.133333-357.376 99.2 0 0-270.122667 16.213333-401.706667-104.576C55.552 717.269333 29.781333 610.218667 27.050667 477.013333 24.277333 344.149333 20.778667 94.976 261.12 27.306667h0.213333l-0.213333-103.082667s-1.450667-41.770667 25.984-50.261333c33.237333-10.24 52.736 21.504 84.48 55.594666 17.450667 18.730667 41.472 46.421333 59.605333 67.498667 164.309333-13.738667 290.688 17.749333 305.024 22.4 33.152 10.837333 220.842667 34.816 251.434667 284.074667 31.488 256.896-15.232 419.413333-99.754667 492.672v-0.170667z m27.818666-474.112c-26.24-208.042667-178.517333-221.312-206.08-230.229333-12.16-3.925333-123.52-31.488-262.997333-22.4 0 0-104.32-125.482667-136.32-158.08-5.162667-5.162667-11.562667-7.082667-15.402667-6.186667-5.76 1.237333-6.997333 7.68-6.997333 17.237333l0.64 170.922667c-0.64 0 0 0 0 0-203.562667 57.002667-191.36 268.842667-188.8 380.16 1.877333 110.762667 22.954667 201.642667 85.077333 263.125333 111.402667 101.162667 341.205333 85.845333 341.205334 85.845334 193.834667-0.682667 286.762667-59.093333 308.181333-78.762667 71.424-61.098667 107.904-207.573333 81.237333-422.101333l0.256 0.469333zM330.282667 683.392a34.56 34.56 0 0 0 26.837333-13.269333c0.170667-0.085333 24.746667-29.653333 35.413333-44.117334 10.026667-13.653333 23.509333-35.413333 30.336-47.573333 12.16-21.76 4.437333-44.032-7.338666-53.248l-24.149334-19.2c-12.16-9.770667-10.666667-27.861333-10.666666-27.861333s35.84-134.698667 168.917333-168.661334c0 0 18.176-1.664 27.904 10.496l19.242667 24.277334c9.088 12.16 31.317333 19.84 53.077333 7.722666 12.16-6.4 33.92-19.882667 47.616-30.037333 14.464-10.24 44.032-35.242667 44.202667-35.242667 14.08-11.562667 17.237333-29.397333 7.68-47.317333v-0.682667a201.813333 201.813333 0 0 0-39.850667-48.682666h-0.341333c-13.397333-11.52-26.837333-17.92-40.277334-19.157334-1.28 0-3.2-0.682667-5.802666 0-5.76 0-11.52 1.237333-17.237334 2.602667v0.597333c-20.48 5.76-54.4 20.48-110.762666 51.882667a671.36 671.36 0 0 0-93.397334 62.08 535.893333 535.893333 0 0 0-41.642666 37.12l-3.242667 1.194667-1.28 1.28-1.237333 1.237333c-14.122667 14.08-26.24 28.16-37.162667 41.813333-20.48 25.984-40.96 56.618667-61.397333 93.397334-31.36 56.32-46.08 90.24-51.84 110.762666H243.2a40.362667 40.362667 0 0 0-2.56 17.237334c-0.64 2.602667 0 4.48 0 6.016 1.28 12.757333 8.064 26.197333 19.541333 40.277333h0.213334c15.146667 16.64 31.488 30.037333 48.896 39.808a42.581333 42.581333 0 0 0 20.437333 5.76h0.682667l-0.128-0.512z m174.72 29.141333h4.949333l3.242667-0.085333h0.853333l3.797333-0.213333h21.802667l5.76-0.64h3.157333l6.4-0.682667h1.28l4.437334-0.64h0.682666l3.157334-0.64c1.962667 0 3.242667-0.682667 4.48-0.682667h3.882666l3.2-1.237333 2.56-0.682667 2.56-0.64 1.28-0.64h1.92l1.962667-0.682666h1.237333l3.157334-0.682667 1.92-0.597333 1.962666-0.682667 2.56-0.682667 1.28-0.597333c1.28 0 2.56-0.682667 3.882667-0.682667l1.877333-0.64 1.962667-0.682666 5.077333-1.877334 2.602667-1.322666 5.76-2.56 1.92-0.64 1.92-0.682667 3.84-1.92 2.602667-0.64 1.237333-0.64 3.242667-1.322667 1.237333-0.597333 2.602667-1.322667 1.92-0.597333 1.92-1.28 2.517333-1.28 1.962667-1.237333 1.28-0.682667 2.602666-1.28 1.877334-1.28 3.2-1.92 1.92-0.682667 3.157333-1.877333 0.682667-0.64 1.92-1.322667 3.84-3.157333 1.962666-1.28 1.877334-1.28 1.322666-0.597333 1.92-1.322667 3.157334-3.157333 2.602666-1.92 1.92-1.28 0.682667-0.64 1.237333-0.682667 3.157334-2.602667 1.962666-1.877333 1.28-1.28 1.92-1.237333 1.92-1.322667 1.237334-0.64 5.12-5.12 2.56-2.602667 5.76-5.76 1.322666-1.237333c0.682667-0.682667 1.92-1.92 2.602667-3.2l1.237333-1.28 7.082667-8.277333 1.92-2.56c0.597333-0.682667 0.597333-1.322667 1.237333-1.322667l3.84-5.76 1.92-1.92 3.84-5.12 3.242667-5.12 1.92-3.84 2.517333-4.48 1.92-3.84 0.682667-1.237333 1.237333-2.602667 3.242667-6.4 3.157333-6.357333 1.322667-3.2c2.517333-5.76 4.437333-11.52 6.997333-17.92 3.157333-8.32 5.76-17.237333 7.68-26.88 1.92-7.04 3.242667-13.44 4.48-20.48l1.237334-11.52 1.92-12.8c0.682667-5.162667 1.322667-10.922667 1.322666-16 0.597333-5.162667 0.597333-10.24 0.597334-15.317334v-10.922666a4.181333 4.181333 0 0 0-0.597334-1.92c-0.682667-1.28-1.322667-1.92-2.602666-3.2-0.896-0.64-2.090667-1.962667-3.413334-1.962667-1.237333-0.597333-2.517333-0.597333-3.84-0.597333h-1.92a9.386667 9.386667 0 0 0-3.84 1.237333c-1.237333 0.682667-2.602667 1.28-3.157333 2.602667-0.682667 1.237333-1.92 2.602667-2.602667 3.84s-1.322667 2.56-1.322666 3.84v15.317333a378.624 378.624 0 0 1-2.517334 27.264c-0.682667 6.229333-1.92 12.117333-2.602666 17.92 0 3.157333-0.682667 6.229333-1.237334 8.917333l-1.237333 6.4-1.621333 6.016-0.682667 3.84-1.92 6.4c-1.237333 5.12-3.157333 10.24-5.077333 15.36a47.232 47.232 0 0 1-4.48 10.197334l-1.237334 3.242666-5.76 11.52-1.322666 1.92a90.368 90.368 0 0 1-9.6 16.682667l-1.92 3.157333h-8.576l-2.730667 3.882667a71.594667 71.594667 0 0 1-7.68 10.197333l-5.333333 6.4-0.64 0.682667-1.962667 2.432-1.493333 1.92-3.2 3.157333-0.64 1.28-2.986667 2.56-1.92 1.962667-3.541333 3.2-1.706667 1.578667-1.962667 1.92-0.64 0.682666c-0.682667 0.64-1.92 1.92-3.2 2.56l-3.242666 2.645334-1.28 0.64-2.602667 1.962666-3.157333 2.56-1.92 1.536-1.28 0.682667-2.56 2.261333c0 0.682667-0.682667 0.682667-1.322667 0.682667l-1.237333 1.237333-0.64 0.682667v0.554667l-1.28 0.597333-2.602667 1.578667-1.877333 1.322666-3.2 1.92-2.56 1.92-1.237334 0.682667-1.365333 0.554667h-3.84l-0.810667 0.682666-2.773333 1.493334-0.384 0.597333-1.28 0.682667-1.92 0.896h-0.512l-1.92 0.682666-1.066667 0.64-1.92 0.64-0.426666 0.469334-1.28 0.682666-2.261334 1.237334-1.28 0.64-3.84 1.28-3.157333 1.237333-5.845333 0.682667-1.877334 1.237333a3.541333 3.541333 0 0 1-1.962666 0.682667l-1.237334 0.64c-1.237333 0.469333-1.92 0.682667-3.2 1.28l-1.28 0.682666h-1.237333l-2.602667 1.237334-1.237333 0.682666-1.92 0.64h-3.925333c-0.341333 0-0.810667 0.213333-1.28 0.298667h-3.84l-1.92 0.682667h-0.64l-1.92 0.682666h-1.749334c-1.066667 0.597333-1.92 0.597333-2.986666 0.597334l-0.426667 0.682666-2.56 0.64c-1.28 0.682667-2.389333 0.682667-3.584 0.682667l-1.92 0.64-2.133333 0.682667-1.92 0.597333-2.602667 0.682667h-2.602667l-7.637333 0.938666h-3.84l-4.949333 0.64h-3.242667l-2.901333 0.341334h-1.28l-2.304 0.682666h-12.16l-0.426667 0.64h-2.602667a8.405333 8.405333 0 0 0-3.84 1.28c-1.28 0.682667-2.602667 1.237333-3.456 2.56l-1.28 1.962667c-1.237333 1.237333-1.237333 2.56-1.92 3.84-0.597333 1.194667-0.597333 2.517333-0.597333 3.797333s0 2.56 0.64 3.84c0.682667 1.237333 1.237333 2.56 2.602667 3.2 0.64 1.28 1.877333 1.877333 3.157333 2.56a8.533333 8.533333 0 0 0 3.84 1.28h2.602667l0.64-2.816z m23.637333-67.157333l1.578667-0.128 2.602666-0.256c0.341333 0 0.768 0 1.237334-0.128 0.938667 0 1.92-0.170667 3.2-0.256l2.56-0.341333 1.024-0.682667 1.92-0.64 2.048-0.64 1.92-0.682667h1.28l1.792-0.64 2.986666-0.64 2.389334-0.682666 1.109333-0.597334h3.114667l5.077333-1.194666 1.962667-0.64 1.92-0.64 1.92-0.682667s0.64 0 0.64-0.64l1.962666-0.64 1.877334-0.682667 1.92-0.682666c0.64 0 1.28-0.597333 1.962666-0.597334 0.298667 0 0.597333-0.682667 1.066667-0.682666l2.730667-1.28h1.237333l3.84-1.28 2.133333-1.237334 1.962667-1.28 4.608-1.92 2.56-0.64 1.322667-1.322666c1.92-0.597333 3.84-1.877333 5.76-2.517334l2.048-1.28 2.048-1.28 2.090666-1.237333c1.92-1.28 3.498667-1.962667 5.162667-3.242667l1.237333-0.597333 1.749334-1.322667 0.938666-0.64 3.2-1.92 1.578667-1.28 2.773333-1.834666 1.237334-0.64 1.28-0.64 1.962666-1.28 2.56-1.962667c0.64-0.597333 0.938667-0.597333 1.450667-1.237333 0.426667-0.64 0.682667-0.64 1.066667-1.28l1.408-1.28 1.536-1.237334 1.28-1.28 1.962666-1.962666 1.237334-1.28 0.682666-0.682667 3.84-3.797333 0.682667-0.682667c0-0.64 0.64-1.28 1.237333-1.28l0.682667-0.554667 1.92-1.962666 1.237333-1.92 1.28-1.28 1.92-2.56 1.962667-1.962667 3.84-5.077333 0.597333-1.237334 2.602667-3.242666 0.682667-1.237334 0.64-1.322666 0.64-1.237334 0.682666-1.28c0.682667-0.64 0.682667-1.28 1.237334-2.56l1.834666-3.242666 0.682667-0.64 1.237333-2.602667 1.322667-1.877333c0.597333-0.64 0.597333-1.237333 1.237333-1.92l1.28-1.92 1.28-2.602667 1.237334-2.517333 0.682666-1.962667c0.64-1.877333 1.92-3.2 2.56-5.12 0-0.64 0.64-1.237333 0.64-1.92l1.92-5.077333 2.602667-8.32c0-0.682667 0.64-1.92 0.64-2.602667l1.962667-5.76 1.877333-7.68 1.962667-10.24c0.597333-3.157333 0.597333-5.76 1.237333-9.002667 0.682667-5.077333 1.28-10.154667 1.28-15.317333l0.64-8.96v-7.04c0-0.682667 0-1.237333-0.64-1.92l-1.877333-1.834667c-1.237333-0.981333-1.92-1.92-3.157334-2.602666a42.453333 42.453333 0 0 0-3.84-1.706667c-1.322667-0.682667-3.2-0.682667-4.48-0.682667-1.237333 0-2.602667 0.682667-3.84 1.28-0.682667 0-1.28 0.682667-1.92 0.896a7.082667 7.082667 0 0 0-3.2 2.773334c-1.28 1.28-1.962667 2.56-1.962666 3.882666l-0.597334 1.877334v13.354666c0 5.674667-0.682667 10.922667-1.322666 16.426667a175.232 175.232 0 0 1-3.157334 17.92c-1.237333 3.84-1.92 7.68-3.2 11.093333l-1.28 3.882667-1.237333 3.2-0.682667 1.28-1.92 5.12-1.92 3.84-3.2 6.357333-2.944 5.12v0.810667l-1.237333 2.005333-1.28 1.621334-1.92 3.2-1.962667 2.602666-3.797333 5.077334c-1.962667 2.602667-3.84 5.12-6.058667 7.594666-0.597333 0.64-1.237333 1.237333-1.237333 1.92l-1.28 1.237334-0.725333 0.682666-1.28 0.597334-1.28 1.152v6.229333l-5.077334 4.821333-3.2 2.901334v0.597333l-1.28 1.322667-1.621333 1.237333-0.64 0.682667c0 0.64-0.682667 0.64-1.237333 0.64l-1.962667 0.682666-0.64 0.64-2.602667 1.92-0.597333 0.682667-0.682667 0.64c-0.512 0.64-0.981333 0.64-1.28 0.64l-2.56 1.92-0.682666 0.682667-2.56 1.237333-0.469334 0.682667-1.92 1.237333-1.28 0.682667-1.28 1.237333-1.237333 1.322667h-0.682667a10.965333 10.965333 0 0 1-4.48 2.56l-1.877333 1.28-1.28 0.597333-0.682667 0.682667-1.92 1.28-1.877333 0.64-2.56 1.28-1.962667 0.64-0.64 0.682666-2.389333 0.597334v0.512l-3.882667 1.28-2.56 1.28-1.28 0.64h-2.56c-1.28 0.64-1.92 0.64-3.2 1.28H563.2l-1.92 0.682666h-1.877333l-1.962667 0.597334-1.237333 0.682666h-2.602667l-2.602667 0.64-1.237333 0.682667h-7.04l-2.944 0.64H524.8l-1.962667 0.682667a12.288 12.288 0 0 0-3.84 2.56c-0.597333 1.28-1.92 2.56-2.56 3.797333-0.64 1.322667-1.28 2.602667-1.28 3.882667v3.84a13.994667 13.994667 0 0 0 1.28 4.48c0.341333 0.64 0.64 1.28 1.28 1.92a8.533333 8.533333 0 0 0 3.2 3.2c0.64 0.64 1.28 0.64 1.877334 1.237333 1.322667 0.682667 2.602667 0.682667 3.882666 0.682667h2.56l-0.597333-2.346667z m19.370667-69.504c0.64 0 1.28 0 1.877333-0.170667 0.682667 0 1.322667 0 1.962667-0.085333l2.218666-0.213333c4.437333-0.384 9.088-1.024 13.568-1.962667l4.437334-0.981333 1.109333-0.341334 4.864-1.237333 2.517333-0.853333 1.962667-0.682667c1.92-0.597333 3.882667-1.92 5.76-2.56l0.682667-0.64 2.56-1.28 3.84-1.962667 1.237333-0.597333c0.682667-0.682667 1.322667-0.682667 1.962667-1.28 0.64-0.682667 1.92-1.28 2.56-1.92 2.602667-1.28 4.48-3.2 6.4-4.48l4.48-3.84 3.84-3.882667 2.602666-3.157333 1.237334-1.237333 1.28-1.322667 1.877333-2.56 3.882667-5.76 3.2-5.76 2.56-5.12 1.962666-4.48c1.877333-4.437333 2.56-8.32 3.84-12.757333 1.237333-3.882667 1.92-8.362667 2.56-12.16l0.64-6.4 0.682667-5.802667V477.866667c0-1.92-0.682667-3.2-1.28-4.48a10.368 10.368 0 0 0-3.2-3.84 11.605333 11.605333 0 0 0-4.48-2.602667c-1.237333-0.597333-2.56-0.597333-3.84-0.597333-1.237333 0-2.56 0-3.84 0.597333l-4.437333 1.962667c-1.28 1.28-2.56 1.92-3.882667 3.882666a35.968 35.968 0 0 0-1.92 4.437334v7.082666l-0.64 4.48-0.64 5.077334-0.682667 4.48-0.682666 2.56c0 0.64-0.597333 1.92-0.597334 2.56-1.28 5.162667-3.84 10.24-6.4 15.36l-2.602666 2.56-2.005334 2.56-1.92 1.92-0.64 1.28-3.2 2.56-2.602666 2.602666-2.517334 1.92c-0.682667 0.64-1.28 0.64-2.602666 1.237334l-3.84 2.602666-2.602667 1.28-1.237333 0.64h-0.682667l-3.242667 1.322667-3.84 1.28-3.84 0.64h-3.2l-1.877333 0.64-1.493333 0.298667h-1.92l-2.56 0.682666h-10.88l-0.64 3.2h-1.664a9.386667 9.386667 0 0 0-3.413334 1.237334 12.672 12.672 0 0 0-3.84 3.413333 23.04 23.04 0 0 0-1.92 3.84 14.592 14.592 0 0 0-0.512 3.84c0 1.578667 0 3.2 0.64 4.821333a11.178667 11.178667 0 0 0 2.56 4.266667l2.602667 1.92a8.533333 8.533333 0 0 0 3.84 1.28l2.645333 3.2h1.365334z"  horiz-adv-x="1024" />

    
    <glyph glyph-name="graphql" unicode="&#58891;" d="M599.504521 778.630455l210.548419-121.593312a91.472302 91.472302 0 0 0 145.442668-17.065728 91.557631 91.557631 0 0 0-57.76749-134.435273v-243.14396a90.960331 90.960331 0 0 0 57.511504-134.392609 91.429638 91.429638 0 0 0-147.319898-15.060505l-209.26849-120.825354a91.301645 91.301645 0 1 0-177.952879-28.926409c0 8.746186 1.237265 17.492371 3.75446 25.982571l-210.591084 121.465319a91.301645 91.301645 0 1 0-87.547185 151.842315l0.042664 243.143961A91.344309 91.344309 0 0 0 68.461728 640.014079a91.429638 91.429638 0 0 0 145.357339 17.27905l210.676412 121.593312A91.216316 91.216316 0 0 0 512 896a91.173652 91.173652 0 0 0 87.504521-117.369545z m-21.972125-37.416608a33.832806 33.832806 0 0 0-2.474531-2.474531l275.654173-477.413742c1.109272 0.383979 2.389202 0.682629 3.498474 0.981279V505.792128a91.088323 91.088323 0 0 0-66.471011 110.415261l0.810622 3.071831-211.017727 121.934627z m-128.632925-2.517195l-2.55986 2.559859-211.017727-121.678641a91.130988 91.130988 0 0 0-62.332572-112.847127l-3.242488-0.895951v-243.527939l3.583803-0.981279 275.654172 477.413742-0.085328-0.042664z m88.571128-21.630811c-16.639085-4.778404-34.259449-4.778404-50.855869 0l-275.611509-477.371078c12.54331-12.074003 21.417489-27.518486 25.598593-44.413557h550.839037c4.138439 16.980399 13.097946 32.467548 25.726585 44.54155L537.470599 717.065841z m42.06702-692.313922l209.609805 121.08134a74.577232 74.577232 0 0 0-1.621245 6.058334H236.473821l-0.895951-3.541139 210.719077-121.678641a90.704345 90.704345 0 0 0 65.703053 27.859801c26.750529 0 50.770541-11.476702 67.537619-29.779695z"  horiz-adv-x="1024" />

    
    <glyph glyph-name="instagram" unicode="&#58892;" d="M512 896C372.906667 896 355.541333 895.36 300.928 892.928 246.4 890.368 209.28 881.792 176.64 869.12c-33.664-13.056-62.250667-30.592-90.709333-59.050667S39.893333 753.066667 26.88 719.36C14.208 686.72 5.589333 649.6 3.072 595.072 0.512 540.458667 0 523.093333 0 384s0.64-156.458667 3.072-211.072c2.56-54.485333 11.136-91.648 23.808-124.288a251.093333 251.093333 0 0 1 59.050667-90.709333A250.368 250.368 0 0 1 176.64-101.12c32.682667-12.629333 69.802667-21.290667 124.288-23.808C355.541333-127.488 372.906667-128 512-128s156.458667 0.64 211.072 3.072c54.485333 2.56 91.648 11.178667 124.288 23.808a251.648 251.648 0 0 1 90.709333 59.050667 250.026667 250.026667 0 0 1 59.050667 90.709333c12.629333 32.64 21.290667 69.802667 23.808 124.288 2.56 54.613333 3.072 71.978667 3.072 211.072s-0.64 156.458667-3.072 211.072c-2.56 54.485333-11.178667 91.690667-23.808 124.288a251.306667 251.306667 0 0 1-59.050667 90.709333A249.472 249.472 0 0 1 847.36 869.12c-32.64 12.672-69.802667 21.290667-124.288 23.808C668.458667 895.488 651.093333 896 512 896z m0-92.16c136.661333 0 152.96-0.682667 206.933333-3.029333 49.92-2.346667 77.013333-10.624 95.018667-17.706667 23.978667-9.258667 40.96-20.352 58.965333-38.229333 17.877333-17.92 28.970667-34.944 38.229334-58.922667 6.997333-18.005333 15.36-45.098667 17.621333-95.018667 2.432-54.016 2.986667-70.229333 2.986667-206.933333s-0.64-152.96-3.157334-206.933333c-2.602667-49.92-10.922667-77.013333-17.962666-95.018667a162.56 162.56 0 0 0-38.357334-58.965333 159.744 159.744 0 0 0-58.88-38.229334c-17.92-6.997333-45.44-15.36-95.36-17.621333-54.357333-2.432-70.357333-2.986667-207.317333-2.986667-137.002667 0-153.002667 0.64-207.317333 3.157334-49.962667 2.602667-77.482667 10.922667-95.402667 17.962666a158.549333 158.549333 0 0 0-58.837333 38.357334 155.477333 155.477333 0 0 0-38.4 58.88c-7.04 17.92-15.317333 45.44-17.92 95.36-1.92 53.76-2.602667 70.357333-2.602667 206.677333 0 136.362667 0.682667 153.002667 2.602667 207.402667 2.602667 49.92 10.88 77.397333 17.92 95.317333 8.96 24.32 20.437333 40.96 38.4 58.922667 17.877333 17.877333 34.56 29.397333 58.837333 38.314666 17.92 7.082667 44.842667 15.402667 94.762667 17.962667 54.4 1.92 70.4 2.56 207.317333 2.56l1.92-1.28z m0-156.928a262.912 262.912 0 1 1 0-525.824 262.912 262.912 0 1 1 0 525.824zM512 213.333333c-94.293333 0-170.666667 76.373333-170.666667 170.666667s76.373333 170.666667 170.666667 170.666667 170.666667-76.373333 170.666667-170.666667-76.373333-170.666667-170.666667-170.666667z m334.762667 443.946667a61.482667 61.482667 0 0 0-122.88 0 61.44 61.44 0 0 0 122.88 0z"  horiz-adv-x="1024" />

    
    <glyph glyph-name="ebay" unicode="&#58893;" d="M258.389333 378.453333V588.373333h51.2v-129.109333c25.173333 29.994667 59.818667 38.656 93.952 38.656 57.173333 0 120.661333-38.570667 120.661334-121.813333 0-9.941333-0.64-19.498667-2.56-28.501334 10.24 40.661333 54.357333 55.68 123.562666 57.344 21.76 0.768 46.72 0.768 66.56 0.768v5.76c0 37.76-23.722667 53.077333-65.28 53.077334-30.72 0-53.12-12.8-55.68-34.56h-54.4c5.802667 55.04 64 69.12 114.602667 69.12 45.397333 0 85.12-11.52 103.04-43.52l-18.602667 35.84h60.16l87.68-176 87.68 176.042666H1024l-158.72-311.68h-57.429333l45.653333 87.04-99.413333 186.88c5.546667-10.88 8.533333-23.68 8.533333-39.68v-104.96c0-14.762667 0.426667-29.44 1.706667-42.88H716.8a279.168 279.168 0 0 0-1.962667 32.64c-25.728-31.317333-56.32-40.96-98.986666-40.96-63.146667 0-96.938667 33.28-96.938667 72.32 0 6.4 0.64 12.117333 1.578667 17.28-12.8-53.162667-58.026667-89.002667-118.058667-89.002666-37.12 0-72.277333 13.44-93.866667 39.68 0-10.24-0.64-21.077333-1.706666-31.317334h-50.346667c0.853333 16.64 1.706667 36.48 1.706667 53.12v44.8h-206.08c2.773333-46.72 34.901333-74.24 79.061333-74.24 30.634667 0 57.813333 12.8 66.901333 39.68h52.906667c-10.24-55.04-68.693333-73.6-119.04-73.6C40.533333 255.701333 0 306.346667 0 374.186667c0 74.837333 41.898667 124.16 132.949333 124.16 72.021333 0 125.013333-37.802667 125.44-119.722667v-0.213333z m389.845334-7.808c-46.72-1.450667-75.52-9.941333-75.52-40.533333 0-19.84 15.36-41.386667 55.68-41.386667 53.76 0 82.56 29.44 82.56 77.397334v5.546666c-19.2 0-42.24-0.256-63.317334-0.938666h0.512z m-258.56-80c47.36 0 80.042667 34.389333 80.042666 86.186667s-32.768 86.186667-80.768 86.186667c-47.36 0-80.64-34.389333-80.64-86.186667s32.64-86.186667 80-86.186667h1.28z m-185.6 107.264c-1.877333 48-36.437333 65.962667-73.6 65.962667-40.277333 0-72.277333-20.224-77.44-65.962667h151.04z"  horiz-adv-x="1024" />

    
    <glyph glyph-name="youtube" unicode="&#58898;" d="M1002.453333 631.253333a128.298667 128.298667 0 0 1-89.088 89.088c-79.786667 21.376-400.896 21.376-400.896 21.376s-320.298667 0.426667-400.896-21.376A128.298667 128.298667 0 0 1 22.485333 631.253333a1333.205333 1333.205333 0 0 1-22.272-247.68 1333.205333 1333.205333 0 0 1 22.272-246.741333 128.298667 128.298667 0 0 1 89.088-89.088c79.701333-21.418667 400.896-21.418667 400.896-21.418667s320.256 0 400.896 21.418667a128.298667 128.298667 0 0 1 89.088 89.088 1333.205333 1333.205333 0 0 1 21.333334 246.741333 1333.205333 1333.205333 0 0 1-21.333334 247.68zM409.984 230.357333V537.258667l267.264-153.685334z"  horiz-adv-x="1024" />

    
    <glyph glyph-name="meteor" unicode="&#58901;" d="M0 886.016l934.912-876.245333s17.578667-24.533333-5.290667-49.109334c-22.826667-24.576-52.736-3.541333-52.736-3.541333L0 886.016z m277.674667-87.808l725.76-667.221333s17.621333-24.576-5.248-49.152c-22.784-24.576-52.693333-3.541333-52.693334-3.541334L277.674667 798.208zM82.602667 610.304l725.76-667.221333s17.578667-24.576-5.248-49.152-52.693333-3.498667-52.693334-3.498667L82.602667 610.304z m429.781333 112.426667l507.136-466.218667s12.245333-17.109333-3.712-34.346667-36.821333-2.474667-36.821333-2.474666L512.384 722.730667z m-365.525333-330.112l507.136-466.176s12.16-17.066667-3.754667-34.261334c-16-17.194667-36.821333-2.517333-36.821333-2.517333L146.858667 392.618667z m605.312 221.226666l231.509333-211.413333s6.058667-8.021333-1.877333-16.085333c-7.893333-8.021333-18.261333-1.152-18.261334-1.152l-211.370666 228.608v0.042666zM263.594667 160.810667l231.466666-211.456s6.144-8.021333-1.792-16.085334-18.218667-1.109333-18.218666-1.109333l-211.456 228.650667z"  horiz-adv-x="1024" />

    
    <glyph glyph-name="googleplus" unicode="&#58902;" d="M325.76 430.549333v-111.744h184.96c-7.381333-48-55.893333-140.586667-184.789333-140.586666-111.104 0-201.856 92.16-201.856 205.781333 0 113.578667 90.538667 205.738667 201.728 205.738667 63.36 0 105.770667-27.008 129.92-50.261334l88.448 85.077334c-56.746667 53.12-130.389333 85.12-218.24 85.12C145.578667 709.76 0 563.84 0 384s145.664-325.76 325.76-325.76c188.16 0 312.832 132.181333 312.832 318.336a296.96 296.96 0 0 1-5.12 53.973333H325.76z m698.24 0h-93.141333V523.690667h-93.141334v-93.141334h-93.098666v-93.056h93.184v-93.184h93.397333V337.493333H1024"  horiz-adv-x="1024" />

    
    <glyph glyph-name="soundcloud" unicode="&#58906;" d="M50.133333 374.4c-2.176 0-4.010667-1.962667-4.309333-4.266667l-9.941333-91.904 9.941333-89.813333c0.298667-2.474667 2.133333-4.181333 4.309333-4.181333 2.133333 0 3.84 1.706667 4.224 4.181333l10.88 89.813333-11.52 91.904c0 2.432-1.92 4.266667-3.84 4.266667m-38.357333-35.328c-2.56 0-3.882667-1.578667-4.437333-4.010667L0 278.229333l7.04-55.808c0-2.346667 1.92-4.010667 3.84-4.010666s3.797333 1.92 4.437333 4.437333l8.96 56.277333-8.96 56.917334c0 2.602667-1.877333 3.84-3.84 3.84m78.08 52.437333c-2.602667 0-5.12-1.92-5.12-4.437333l-8.96-109.354667 9.6-104.874667c0-2.56 1.92-5.12 5.077334-5.12 2.602667 0 4.48 2.602667 5.162666 5.12l10.837334 105.557334-10.837334 108.714666c-0.682667 2.56-2.602667 5.12-5.162666 5.12m40.32 3.797334c-3.2 0-5.76-2.56-6.4-5.76l-8.234667-112.64 8.96-108.544c0.682667-3.285333 3.2-5.888 6.357333-5.888 3.2 0 5.76 2.602667 6.4 6.4l10.24 108.032-10.24 111.914666a5.717333 5.717333 0 0 1-5.76 5.76l-1.322666 0.725334z m49.28-15.36a6.613333 6.613333 0 0 1-6.784 6.357333c-3.84 0-6.741333-2.56-6.997334-6.357333l-9.258666-103.68 8.533333-109.354667c0-3.84 3.2-6.698667 6.784-6.698667 3.157333 0 6.314667 2.901333 6.314667 6.741334l9.685333 109.354666-9.685333 104.277334 1.408-0.64z m34.517333 72.917333c-4.309333 0-7.68-3.84-7.68-7.722667l-8.96-168.832 7.978667-109.354666c0-3.84 3.413333-6.997333 7.68-6.997334 4.010667 0 7.424 3.84 7.68 7.68l8.917333 109.354667-8.917333 169.472c-0.341333 4.437333-3.754667 7.68-7.68 7.68m40.917333 38.997333a9.002667 9.002667 0 0 1-8.661333-8.277333l-7.68-207.872 7.04-108.714667c0-5.12 3.84-8.917333 8.32-8.917333 4.437333 0 8.277333 3.797333 8.96 8.917333l8.234666 108.714667-8.192 207.189333c-0.682667 5.12-4.48 8.96-8.96 8.96m42.197334 19.157334c-5.162667 0-9.002667-3.797333-9.6-8.917334l-7.04-225.066666 7.04-107.52c0.597333-5.077333 4.437333-9.6 9.6-9.6a9.856 9.856 0 0 1 9.6 9.6l8.32 107.52-8.362667 225.066666a9.813333 9.813333 0 0 1-9.6 9.6m53.12-1.92a10.112 10.112 0 0 1-10.24 10.24 10.538667 10.538667 0 0 1-10.24-10.24l-6.357333-232.149333 6.357333-106.794667c0.682667-5.76 5.162667-10.24 10.922667-10.24s10.24 4.48 10.24 10.24l6.997333 106.794667-6.997333 232.789333-0.682667-0.64z m31.957333 5.717334a11.178667 11.178667 0 0 1-10.88-10.837334l-6.4-227.072 6.4-105.514666c0-6.4 5.12-10.88 10.88-10.88s10.88 5.12 10.88 11.52l6.4 105.557333-7.04 226.432a11.52 11.52 0 0 1-11.562666 11.52m42.88-7.082667a12.16 12.16 0 0 1-12.117334-12.16l-4.394666-219.434666 5.76-105.557334c0-6.357333 5.077333-11.818667 12.117333-11.818666 6.357333 0 11.562667 5.12 12.117333 12.16l5.162667 104.234666-5.76 218.112c-0.512 6.997333-5.76 12.16-12.16 12.16m50.517333 40.32a13.226667 13.226667 0 0 1-7.04 1.877334 13.354667 13.354667 0 0 1-7.04-1.877334 12.8 12.8 0 0 1-6.357333-10.88v-2.602666l-4.437333-258.048 4.906666-104.490667v-0.341333c0.341333-2.56 1.28-5.76 3.157334-7.68a13.952 13.952 0 0 1 9.984-4.437334c3.413333 0 6.741333 1.877333 8.917333 3.84a13.397333 13.397333 0 0 1 3.882667 9.6l0.64 10.24 4.992 93.994667-5.76 259.669333a12.245333 12.245333 0 0 1-5.76 10.197334l-0.085334 0.938666z m42.922667 23.338667a8.234667 8.234667 0 0 1-6.4 2.602667 14.677333 14.677333 0 0 1-8.917333-2.602667 13.397333 13.397333 0 0 1-5.077334-10.24v-1.237333l-5.845333-281.984 3.242667-51.84 2.602666-50.56c0-6.997333 6.314667-13.397333 13.994667-13.397334 7.722667 0 14.08 6.4 14.08 14.037334l6.4 102.997333-6.4 283.178667a14.208 14.208 0 0 1-7.04 11.818666m381.184-161.152a125.013333 125.013333 0 0 1-48.597333-9.898666 222.037333 222.037333 0 0 1-221.354667 202.069333c-28.117333 0-55.68-5.76-80.597333-15.317333-9.6-3.84-11.52-7.68-12.16-15.317334v-399.701333c0.682667-7.68 6.4-14.08 14.08-14.72h349.226666C967.722667 161.365333 1024 217.002667 1024 286.72s-56.277333 125.952-125.354667 125.952"  horiz-adv-x="1024" />

    
    <glyph glyph-name="gmail" unicode="&#58909;" d="M1024 704v-640c0-36.266667-27.733333-64-64-64H896V580.821333l-384-275.754666-384 275.754666V0H64C27.690667 0 0 27.733333 0 64v640c0 18.133333 6.912 34.133333 18.389333 45.568A63.36 63.36 0 0 0 64 768H85.333333l426.666667-309.333333L938.666667 768h21.333333c18.133333 0 34.133333-6.912 45.610667-18.432 11.52-11.434667 18.389333-27.434667 18.389333-45.568z"  horiz-adv-x="1024" />

    
    <glyph glyph-name="shopify" unicode="&#58929;" d="M654.378667-127.104l307.882666 66.602667s-111.104 751.488-112 756.48c-0.768 4.949333-4.864 8.192-9.002666 8.192s-82.304 5.802667-82.304 5.802666-54.4 54.357333-61.397334 60.202667a16.384 16.384 0 0 1-5.162666 3.157333l-38.997334-900.437333h0.981334zM499.626667 413.653333s-34.56 18.090667-75.690667 18.090667c-61.738667 0-64.170667-38.656-64.170667-48.682667 0-52.565333 138.24-73.173333 138.24-197.504 0-97.92-61.44-160.426667-145.322666-160.426666-100.437333 0-151.04 62.506667-151.04 62.506666l27.562666 89.002667s53.12-45.482667 97.28-45.482667a40.277333 40.277333 0 0 1 41.6 39.765334c0 69.077333-113.237333 72.277333-113.237333 185.984-1.450667 95.445333 67.029333 188.416 205.952 188.416 53.632 0 80-15.402667 80-15.402667l-40.32-115.84-0.853333-0.426667zM476.586667 860.586667c5.802667 0 11.562667-1.621333 17.28-5.76-41.984-19.84-88.064-69.930667-107.008-170.325334a2680.32 2680.32 0 0 0-80.597334-24.661333C328.405333 736 381.909333 860.16 476.586667 860.16V860.586667z m52.693333-125.824v-5.76c-32.170667-9.898667-67.541333-20.650667-102.144-31.402667 19.882667 75.818667 56.874667 112.853333 88.96 126.762667 8.234667-21.376 13.184-50.176 13.184-89.6z m22.997333 95.317333c29.610667-3.157333 48.682667-36.992 60.970667-74.88-14.890667-4.864-31.36-9.856-49.408-15.616v10.752c0 32.085333-4.096 58.496-11.562667 79.829333v-0.085333z m127.658667-54.997333c-0.853333 0-2.56-0.896-3.328-0.896s-12.330667-3.2-30.464-8.96c-18.048 52.608-50.176 101.12-107.008 101.12h-4.906667C517.76 887.082667 497.877333 896 480.64 896 348.117333 896 284.8 730.581333 264.96 646.570667c-50.944-15.573333-88.021333-27.136-92.16-28.757334-28.8-9.088-29.610667-9.898667-32.938667-37.12-3.2-19.712-78.08-600.021333-78.08-600.021333L640.384-128l39.552 903.082667z"  horiz-adv-x="1024" />

    
    <glyph glyph-name="whatsapp" unicode="&#58950;" d="M746.581333 282.368c-12.842667 6.4-75.392 36.992-87.04 41.216-11.648 4.309333-20.181333 6.4-28.714666-6.4-8.405333-12.586667-32.896-41.130667-40.277334-49.578667-7.466667-8.32-14.890667-8.96-27.562666-3.2-12.8 6.4-53.888 19.84-102.528 63.36-37.888 33.92-63.317333 75.52-70.826667 88.32-7.424 12.8-0.810667 19.84 5.546667 26.24 5.802667 5.76 12.842667 14.72 19.242666 22.314667 6.229333 7.722667 8.277333 12.842667 12.672 21.162667 4.266667 8.96 2.090667 16-1.066666 22.357333-3.2 6.4-28.672 69.12-39.338667 94.122667-10.24 24.917333-20.778667 21.76-28.672 21.76-7.338667 0.64-15.829333 0.64-24.362667 0.64-8.533333 0-22.314667-3.157333-34.005333-15.317334-11.648-12.8-44.586667-43.52-44.586667-105.6s45.653333-122.24 52.010667-131.2c6.357333-8.32 89.813333-136.32 217.6-191.36 30.464-12.8 54.186667-20.48 72.704-26.837333 30.464-9.685333 58.24-8.32 80.213333-5.162667 24.490667 3.882667 75.392 30.762667 86.016 60.842667 10.88 30.08 10.88 55.04 7.68 60.8-3.157333 5.76-11.52 8.96-24.32 14.72m-232.362666-317.568h-0.682667c-75.52 0-150.357333 20.48-215.68 58.88l-15.36 9.130667-160-41.6 42.88 155.52-10.197333 16a421.077333 421.077333 0 0 0-64.682667 224.426666c0 232.32 190.08 421.76 424.192 421.76a420.906667 420.906667 0 0 0 299.562667-124.16 417.621333 417.621333 0 0 0 124.117333-298.24c-0.170667-232.277333-190.293333-421.76-423.893333-421.76M875.52 748.842667C778.24 842.88 650.24 896 513.92 896 233.088 896 4.437333 668.416 4.309333 388.565333c0-89.429333 23.424-176.64 68.053334-253.653333L0-128l270.293333 70.485333a514.645333 514.645333 0 0 1 243.626667-61.738666h0.256c280.96 0 509.696 227.669333 509.824 507.562666 0 135.509333-52.906667 263.04-149.12 358.869334"  horiz-adv-x="1024" />

    
    <glyph glyph-name="skype" unicode="&#58953;" d="M514.944 90.709333c-171.648 0-248.32 84.437333-248.32 147.797334 0 32.64 23.936 55.296 56.874667 55.296 73.514667 0 54.314667-105.685333 191.445333-105.685334 70.016 0 108.8 38.186667 108.8 77.269334 0 23.509333-11.477333 49.493333-57.770667 60.970666l-152.576 38.186667c-122.88 30.890667-145.194667 97.536-145.194666 160.042667 0 130.005333 122.069333 178.816 236.757333 178.816 105.429333 0 230.101333-58.581333 230.101333-136.490667 0-33.450667-29.354667-52.906667-61.994666-52.906667-62.677333 0-51.114667 86.912-177.664 86.912-62.677333 0-97.792-28.330667-97.792-68.992s49.194667-53.674667 92.032-63.445333l112.512-25.045333c123.349333-27.690667 154.624-100.096 154.624-168.277334 0-105.642667-81.152-184.490667-244.138667-184.490666m472.917333 208.298666l-1.237333-5.76-1.877333 10.24c0.64-1.92 1.877333-3.157333 2.517333-5.12 5.12 28.8 7.722667 58.154667 7.722667 87.552a482.986667 482.986667 0 0 1-141.866667 342.016 489.856 489.856 0 0 1-153.386667 103.509334c-56.234667 26.922667-119.509333 39.68-184.661333 39.68-30.72 0-61.610667-2.986667-91.434667-8.704l5.077334-2.56-10.197334 1.408 5.077334 1.066666A284.458667 284.458667 0 0 1 287.189333 896c-76.330667 0-148.053333-29.781333-202.069333-83.925333A285.013333 285.013333 0 0 1 1.365333 609.450667c0-48.768 12.458667-96.64 36.010667-139.008l0.853333 5.290666 1.749334-10.197333-2.56 4.906667a486.869333 486.869333 0 0 1 30.378666-271.829334 466.304 466.304 0 0 1 103.552-153.984 483.242667 483.242667 0 0 1 153.386667-104.192c59.477333-25.6 122.752-38.314667 187.904-38.314666 28.117333 0 56.917333 2.56 84.352 7.637333l-5.077333 2.645333 10.24-1.962666-5.76-1.28a283.392 283.392 0 0 1 140.544-37.162667 283.306667 283.306667 0 0 1 201.941333 83.754667 285.141333 285.141333 0 0 1 83.712 202.624 288.938667 288.938667 0 0 1-36.394667 139.349333"  horiz-adv-x="1024" />

    
    <glyph glyph-name="react" unicode="&#58956;" d="M512 384m-91.264 0a91.264 91.264 0 1 1 182.528 0 91.264 91.264 0 1 1-182.528 0ZM256.341333 202.453333l-20.138666 5.12C86.101333 245.504 0 309.888 0 384.170667s86.101333 138.666667 236.202667 176.597333l20.138666 5.077333 5.674667-19.968a1003.946667 1003.946667 0 0 1 58.154667-152.661333l4.309333-9.088-4.309333-9.088a994.432 994.432 0 0 1-58.154667-152.661333l-5.674667-19.925334zM226.858667 514.133333c-114.090667-32.042667-184.106667-81.066667-184.106667-129.962666 0-48.853333 70.016-97.877333 184.106667-129.962667a1064.533333 1064.533333 0 0 0 50.432 129.962667A1056.085333 1056.085333 0 0 0 226.858667 514.133333z m540.8-311.68l-5.674667 20.010667a996.565333 996.565333 0 0 1-58.197333 152.618667l-4.309334 9.088 4.309334 9.088a999.253333 999.253333 0 0 1 58.197333 152.661333l5.674667 19.968 20.181333-5.077333c150.058667-37.930667 236.16-102.314667 236.16-176.64s-86.101333-138.666667-236.16-176.597334l-20.181333-5.12z m-20.949334 181.717334c20.48-44.330667 37.418667-87.893333 50.432-129.962667 114.133333 32.085333 184.106667 81.109333 184.106667 129.962667 0 48.896-70.016 97.877333-184.106667 129.962666a1057.621333 1057.621333 0 0 0-50.432-129.962666zM226.56 514.346667l-5.674667 19.925333C178.688 683.008 191.488 789.589333 256 826.794667c63.274667 36.522667 164.864-6.613333 271.317333-115.882667l14.506667-14.890667-14.506667-14.890666a1004.885333 1004.885333 0 0 1-103.338666-126.592l-5.76-8.234667-10.026667-0.853333a1009.365333 1009.365333 0 0 1-161.493333-26.026667l-20.138667-5.077333z m80.896 282.88c-11.434667 0-21.546667-2.474667-30.08-7.381334-42.410667-24.448-49.92-109.44-20.693333-224.128a1071.872 1071.872 0 0 0 137.941333 21.376 1060.138667 1060.138667 0 0 0 87.552 108.544c-66.56 64.810667-129.578667 101.589333-174.72 101.589334z m409.130667-868.778667c-0.042667 0-0.042667 0 0 0-60.8 0-138.88 45.781333-219.904 128.981333l-14.506667 14.890667 14.506667 14.890667a1003.946667 1003.946667 0 0 1 103.296 126.634666l5.76 8.234667 9.984 0.853333a1008.213333 1008.213333 0 0 1 161.578666 25.984l20.138667 5.077334 5.717333-19.968c42.112-148.650667 29.354667-255.274667-35.157333-292.437334a101.546667 101.546667 0 0 0-51.413333-13.141333z m-174.762667 144.256c66.56-64.810667 129.578667-101.589333 174.72-101.589333h0.042667c11.392 0 21.546667 2.474667 30.037333 7.381333 42.410667 24.448 49.962667 109.482667 20.693333 224.170667a1067.52 1067.52 0 0 0-137.984-21.376 1052.757333 1052.757333 0 0 0-87.509333-108.586667zM797.44 514.346667l-20.138667 5.077333a1001.770667 1001.770667 0 0 1-161.578666 26.026667l-9.984 0.853333-5.76 8.234667a998.997333 998.997333 0 0 1-103.296 126.592l-14.506667 14.890666 14.506667 14.890667C603.093333 820.138667 704.64 863.274667 768 826.794667c64.512-37.205333 77.312-143.786667 35.157333-292.48l-5.717333-19.968zM629.333333 587.093333c48.725333-4.437333 95.018667-11.648 137.984-21.376 29.269333 114.688 21.717333 199.68-20.693333 224.128-42.154667 24.362667-121.386667-12.970667-204.8-94.208A1060.224 1060.224 0 0 0 629.333333 587.093333zM307.456-71.552A101.546667 101.546667 0 0 0 256-58.410667c-64.512 37.162667-77.312 143.744-35.114667 292.437334l5.632 19.968 20.138667-5.077334c49.28-12.416 103.637333-21.162667 161.493333-25.984l10.026667-0.853333 5.717333-8.234667a1006.762667 1006.762667 0 0 1 103.338667-126.634666l14.506667-14.890667-14.506667-14.890667c-80.981333-83.2-159.061333-128.981333-219.776-128.981333z m-50.773333 274.218667c-29.269333-114.688-21.717333-199.722667 20.693333-224.170667 42.112-24.021333 121.301333 13.013333 204.8 94.208a1066.581333 1066.581333 0 0 0-87.552 108.586667 1065.642667 1065.642667 0 0 0-137.941333 21.376zM512 175.872c-35.114667 0-71.210667 1.536-107.349333 4.522667l-10.026667 0.853333-5.76 8.234667a1296.554667 1296.554667 0 0 0-57.6 90.538666 1295.104 1295.104 0 0 0-49.749333 95.061334l-4.266667 9.088 4.266667 9.088a1292.8 1292.8 0 0 0 49.749333 95.061333c17.664 30.549333 37.077333 61.013333 57.6 90.538667l5.76 8.234666 10.026667 0.853334a1270.826667 1270.826667 0 0 0 214.741333 0l9.984-0.853334 5.717333-8.234666a1280.256 1280.256 0 0 0 107.392-185.6l4.309334-9.088-4.309334-9.088a1262.933333 1262.933333 0 0 0-107.392-185.6l-5.717333-8.234667-9.984-0.853333c-36.138667-2.986667-72.277333-4.522667-107.392-4.522667z m-93.738667 46.250667c63.146667-4.736 124.330667-4.736 187.52 0a1237.589333 1237.589333 0 0 1 93.696 162.048 1219.626667 1219.626667 0 0 1-93.738666 162.048 1238.656 1238.656 0 0 1-187.477334 0 1215.018667 1215.018667 0 0 1-93.738666-162.048 1242.197333 1242.197333 0 0 1 93.738666-162.048z"  horiz-adv-x="1024" />

    
    <glyph glyph-name="messenger" unicode="&#58979;" d="M512 896C229.248 896 0 683.776 0 421.930667c0-149.248 74.410667-282.197333 190.677333-369.237334V-128l174.421334 95.658667c46.592-12.8 95.829333-19.797333 146.901333-19.797334 282.752 0 512 212.266667 512 474.026667S794.752 896 512 896z m50.816-638.421333l-130.346667 139.093333-254.421333-139.093333L457.898667 554.666667l133.589333-139.050667L842.752 554.666667l-279.936-297.088z"  horiz-adv-x="1024" />

    
    <glyph glyph-name="paypal" unicode="&#58983;" d="M294.804682-127.70142H162.405965c-28.322406 0-46.322489 22.564085-39.924355 50.331986l6.355479 28.748948h88.336902c28.407714 0 56.986046 22.734702 63.213563 50.417295l45.384096 195.868205c6.398134 27.639938 34.805848 50.331987 63.128254 50.331987h37.663682c161.616862 0 287.233557 33.227642 377.063356 99.810888s134.787354 153.555213 134.787354 261.683676c0 47.986004-8.317574 87.654434-25.080685 118.962636 0 0.682468-0.682468 1.322281-0.682468 1.962094l5.758321-3.199067c31.990669-19.834215 56.303578-45.384096 72.98138-77.374765 17.232307-31.990669 25.507227-71.659099 25.507227-119.047945 0-108.128463-44.744283-195.100429-134.95797-261.683675-89.573874-65.900779-215.617112-99.128421-376.807431-99.128421h-38.388804c-28.151789 0-56.900737-22.393469-63.298871-50.587912L358.018245-77.0282c-6.35548-27.511976-34.549923-49.905444-62.701712-49.905444L294.804682-127.70142z m-114.185363 114.953138H48.177948c-28.279752 0-46.237181 22.564085-39.924355 50.331987L194.780522 845.582705C201.22131 873.435915 229.543716 896 257.951431 896h275.75957c59.502645 0 111.284875-4.180114 155.602616-12.327071 44.147124-8.061649 81.896114-22.137543 114.483942-42.227684 31.39351-19.834215 56.388887-45.72533 72.384221-77.545382 16.592494-31.905361 24.910068-71.659099 24.910068-119.30387 0-108.128463-44.829591-195.100429-134.95797-261.001208-89.573874-66.583247-215.659766-99.213729-376.89274-99.213729h-37.663681c-28.151789 0-56.644812-22.350814-63.042946-49.86279L243.278377 38.778023c-6.35548-27.55463-34.848503-49.990753-63.341525-49.990753l0.682467-1.535552z m317.603366 740.861249h-43.251385c-28.407714 0-56.815429-22.564085-63.128254-50.246678l-39.66843-171.469988c-6.398134-27.639938 11.516641-50.289332 39.66843-50.289332h32.673137c70.976632 0 126.683051 14.630399 166.351481 43.549964 39.625776 29.260799 59.502645 70.55009 59.502645 124.209106 0 35.403007-12.838922 61.635356-38.388804 78.483776-25.592536 17.232307-63.981339 25.805807-114.56925 25.805806l0.81043-0.042654z"  horiz-adv-x="1024" />

    
    <glyph glyph-name="redux" unicode="&#58988;" d="M709.76 191.829333c37.077333 3.2 65.834667 35.84 63.957333 74.837334-1.962667 38.997333-33.92 70.314667-72.874666 70.314666h-2.602667a72.96 72.96 0 0 1-70.314667-75.477333c1.28-20.437333 9.642667-37.077333 21.077334-49.194667-44.714667-86.954667-111.829333-150.869333-213.504-204.586666-68.394667-35.754667-140.629333-49.237333-210.944-39.637334-58.794667 8.277333-104.789333 34.56-132.949334 76.714667-42.154667 63.957333-45.994667 132.949333-10.88 201.984 25.642667 49.877333 63.957333 86.314667 89.557334 104.234667a424.96 424.96 0 0 0-17.92 65.792C-36.906667 281.258667-17.664 95.914667 39.850667 8.32c42.837333-63.914667 130.432-104.789333 226.304-104.789333 25.557333 0 52.437333 1.877333 78.634666 8.277333 166.229333 31.957333 292.138667 131.669333 364.373334 278.698667l0.597333 1.322666zM937.941333 351.658667c-99.029333 116.352-244.821333 180.266667-411.050666 180.266666h-21.76c-10.794667 23.637333-35.712 38.357333-63.872 38.357334h-1.92c-40.234667 0-71.594667-34.56-70.272-74.794667 1.28-38.314667 33.877333-70.314667 72.874666-70.314667h3.157334a72.106667 72.106667 0 0 1 63.914666 44.757334h23.68c98.517333 0 191.786667-28.757333 276.821334-84.992 65.152-42.837333 111.872-99.072 138.069333-166.229334 22.954667-54.954667 21.717333-108.672-1.92-153.472-36.437333-70.272-97.834667-107.392-178.986667-107.392-51.157333 0-100.992 16-126.592 27.477334-15.317333-12.714667-40.917333-33.834667-59.477333-46.634667 56.234667-25.514667 113.152-40.234667 168.106667-40.234667 124.672 0 217.301333 70.272 252.501333 138.069334 38.314667 76.714667 35.157333 205.824-62.677333 316.416l-0.597334-1.28zM276.992 168.874667a73.557333 73.557333 0 0 1 72.874667-70.314667h2.56a72.021333 72.021333 0 0 1 70.314666 75.434667c0 38.357333-33.237333 70.272-72.234666 70.272h-2.602667c-2.56 0-6.357333 0-9.6-1.237334-53.034667 89.514667-75.434667 185.429333-67.072 288.896 5.077333 77.994667 30.677333 145.792 76.672 202.026667 38.357333 47.957333 110.592 71.637333 159.829333 72.874667 138.069333 2.602667 195.626667-169.429333 200.064-237.824l63.914667-19.157334c-14.72 209.664-145.066667 319.658667-269.738667 319.658667-116.992 0-224.981333-85.034667-268.501333-209.706667-59.434667-166.229333-20.437333-326.016 52.437333-453.888-6.357333-8.32-10.197333-22.997333-8.917333-37.034666z"  horiz-adv-x="1024" />

    
    <glyph glyph-name="facebook" unicode="&#58990;" d="M967.509333 896H56.490667C25.301333 896 0 870.698667 0 839.509333v-911.018666C0-102.741333 25.301333-128 56.490667-128h490.410666v396.544H413.397333v154.496h133.504V537.173333c0 132.224 80.810667 204.16 198.784 204.16 56.533333 0 105.130667-4.138667 119.296-6.016v-138.24h-81.962666c-64 0-76.458667-30.762667-76.458667-75.562666v-98.602667h152.917333l-19.84-154.88H706.56V-128h260.906667c31.274667 0 56.533333 25.258667 56.533333 56.490667V839.509333C1024 870.698667 998.741333 896 967.509333 896"  horiz-adv-x="1024" />

    
    <glyph glyph-name="tishi" unicode="&#58894;" d="M512-92.16c-78.848 0-143.36 64.512-143.36 143.36 0 17.408 13.312 30.72 30.72 30.72s30.72-13.312 30.72-30.72c0-45.056 36.864-81.92 81.92-81.92s81.92 36.864 81.92 81.92c0 17.408 13.312 30.72 30.72 30.72s30.72-13.312 30.72-30.72c0-78.848-64.512-143.36-143.36-143.36zM890.88 102.4H133.12c-45.056 0-81.92 36.864-81.92 81.92s36.864 81.92 81.92 81.92h62.464V492.544C195.584 666.624 337.92 808.96 512 808.96s316.416-142.336 316.416-316.416v-226.304H890.88c45.056 0 81.92-36.864 81.92-81.92s-36.864-81.92-81.92-81.92z m-757.76 102.4c-11.264 0-20.48-9.216-20.48-20.48s9.216-20.48 20.48-20.48h757.76c11.264 0 20.48 9.216 20.48 20.48s-9.216 20.48-20.48 20.48h-93.184c-17.408 0-30.72 13.312-30.72 30.72V492.544c0 140.288-114.688 254.976-254.976 254.976S257.024 632.832 257.024 492.544v-257.024c0-17.408-13.312-30.72-30.72-30.72H133.12zM552.96 757.76h-81.92c-17.408 0-30.72 13.312-30.72 30.72 0 39.936 31.744 71.68 71.68 71.68s71.68-31.744 71.68-71.68c0-17.408-13.312-30.72-30.72-30.72z"  horiz-adv-x="1024" />

    
    <glyph glyph-name="zuobiao" unicode="&#58895;" d="M508.928 373.76c-83.968 0-151.552 67.584-151.552 151.552s67.584 151.552 151.552 151.552S660.48 609.28 660.48 525.312 592.896 373.76 508.928 373.76z m0 241.664c-50.176 0-90.112-40.96-90.112-90.112s40.96-90.112 90.112-90.112c50.176 0 90.112 40.96 90.112 90.112s-39.936 90.112-90.112 90.112zM512-96.256c-184.32 0-371.712 49.152-371.712 143.36 0 57.344 70.656 103.424 191.488 126.976-82.944 97.28-166.912 224.256-166.912 346.112 0 189.44 154.624 344.064 344.064 344.064s344.064-154.624 344.064-344.064c0-137.216-106.496-281.6-196.608-378.88-1.024-1.024-20.48-21.504-36.864-38.912-12.288-13.312-24.576-25.6-25.6-26.624-11.264-12.288-30.72-13.312-43.008-1.024-12.288 11.264-13.312 30.72-2.048 43.008 1.024 1.024 12.288 13.312 25.6 26.624 16.384 17.408 34.816 35.84 35.84 37.888 81.92 89.088 180.224 220.16 180.224 336.896 0 155.648-126.976 282.624-282.624 282.624S226.304 675.84 226.304 520.192c0-119.808 102.4-254.976 188.416-346.112 8.192-8.192 10.24-20.48 6.144-31.744s-13.312-18.432-25.6-20.48c-136.192-16.384-194.56-57.344-194.56-74.752 0-24.576 105.472-81.92 310.272-81.92s310.272 57.344 310.272 81.92c0 10.24-22.528 32.768-83.968 52.224a31.09888 31.09888 0 0 0 18.432 59.392c105.472-32.768 128-78.848 128-110.592 0-95.232-187.392-144.384-371.712-144.384z"  horiz-adv-x="1024" />

    
    <glyph glyph-name="biaoqian" unicode="&#58936;" d="M947.2 473.6l-12.8 212.8c-3.2 64-56 116.8-120 120l-212.8 12.8c-36.8 1.6-72-11.2-97.6-36.8L113.6 393.6C64 342.4 64 262.4 113.6 212.8l225.6-225.6c49.6-49.6 131.2-49.6 180.8 0l388.8 388.8c27.2 25.6 41.6 60.8 38.4 97.6z m-81.6-52.8L475.2 30.4c-25.6-25.6-65.6-25.6-91.2 0L158.4 257.6c-25.6 25.6-25.6 65.6 0 91.2L548.8 737.6c12.8 12.8 30.4 19.2 49.6 19.2l214.4-12.8c32-1.6 57.6-27.2 60.8-60.8l12.8-212.8c-1.6-19.2-8-36.8-20.8-49.6zM550.4 603.2c-49.6-49.6-49.6-131.2 0-180.8s131.2-49.6 180.8 0 49.6 131.2 0 180.8-131.2 49.6-180.8 0z m134.4-136c-25.6-25.6-65.6-25.6-91.2 0-25.6 25.6-25.6 65.6 0 91.2 25.6 25.6 65.6 25.6 91.2 0 25.6-25.6 25.6-65.6 0-91.2z"  horiz-adv-x="1024" />

    
    </font>
</defs>
</svg>
